<?xml version="1.0" encoding="UTF-8" standalone="no"?>
<svg
   width="800.000"
   height="600.000"
   viewBox="0.0 0.0 800.000 600.000"
   version="1.1"
   id="svg100"
   sodipodi:docname="Vault-Kit Logo.svg"
   inkscape:version="1.4.3 (0d15f75, 2025-12-25)"
   xmlns:inkscape="http://www.inkscape.org/namespaces/inkscape"
   xmlns:sodipodi="http://sodipodi.sourceforge.net/DTD/sodipodi-0.dtd"
   xmlns="http://www.w3.org/2000/svg"
   xmlns:svg="http://www.w3.org/2000/svg"
   xmlns:rdf="http://www.w3.org/1999/02/22-rdf-syntax-ns#"
   xmlns:cc="http://creativecommons.org/ns#"
   xmlns:dc="http://purl.org/dc/elements/1.1/">
  <defs
     id="defs100">
    <inkscape:path-effect
       effect="fill_between_many"
       method="originald"
       linkedpaths="#path101,0,1|"
       id="path-effect112" />
  </defs>
  <sodipodi:namedview
     id="namedview100"
     pagecolor="#ffffff"
     bordercolor="#000000"
     borderopacity="0.25"
     inkscape:showpageshadow="2"
     inkscape:pageopacity="0.0"
     inkscape:pagecheckerboard="0"
     inkscape:deskcolor="#d1d1d1"
     inkscape:zoom="1.5286893"
     inkscape:cx="291.42612"
     inkscape:cy="291.7532"
     inkscape:window-width="2735"
     inkscape:window-height="1674"
     inkscape:window-x="1748"
     inkscape:window-y="82"
     inkscape:window-maximized="0"
     inkscape:current-layer="svg100" />
  <title
     id="title1">Produce by Acme CAD Converter</title>
  <desc
     id="desc1">Produce by Acme CAD Converter</desc>
  <path
     d="M357.4 554.75L365.65 591.47"
     fill="none"
     stroke="black"
     stroke-width="0.5"
     id="path1" />
  <path
     d="M365.65 591.47L366.13 592.73M366.13 592.73L366.95 593.8M366.95 593.8L368.04 594.6M368.04 594.6L369.31 595.05"
     fill="none"
     stroke="black"
     stroke-width="0.5"
     id="path2" />
  <path
     d="M369.31 595.05L369.79 595.15M369.79 595.15L370.27 595.24M370.27 595.24L370.75 595.34M370.75 595.34L371.22 595.43M371.22 595.43L371.7 595.52M371.7 595.52L372.18 595.61M372.18 595.61L372.66 595.7M372.66 595.7L373.14 595.78M373.14 595.78L373.62 595.87M373.62 595.87L374.1 595.95M374.1 595.95L374.58 596.03M374.58 596.03L375.05 596.12M375.05 596.12L375.53 596.2M375.53 596.2L376.01 596.27M376.01 596.27L376.49 596.35M376.49 596.35L376.97 596.43M376.97 596.43L377.45 596.5M377.45 596.5L377.93 596.58M377.93 596.58L378.41 596.65M378.41 596.65L378.89 596.72M378.89 596.72L379.37 596.79M379.37 596.79L379.85 596.85M379.85 596.85L380.33 596.92M380.33 596.92L380.81 596.98M380.81 596.98L381.29 597.05M381.29 597.05L381.77 597.11M381.77 597.11L382.25 597.17M382.25 597.17L382.72 597.23M382.72 597.23L383.2 597.29M383.2 597.29L383.68 597.34M383.68 597.34L384.16 597.4M384.16 597.4L384.65 597.45M384.65 597.45L385.13 597.5M385.13 597.5L385.61 597.55M385.61 597.55L386.09 597.6M386.09 597.6L386.57 597.65M386.57 597.65L387.05 597.69M387.05 597.69L387.53 597.74M387.53 597.74L388.01 597.78M388.01 597.78L388.49 597.82M388.49 597.82L388.97 597.86M388.97 597.86L389.45 597.89M389.45 597.89L389.93 597.93M389.93 597.93L390.41 597.96M390.41 597.96L390.89 598M390.89 598L391.37 598.03M391.37 598.03L391.85 598.06M391.85 598.06L392.34 598.09M392.34 598.09L392.82 598.11M392.82 598.11L393.3 598.14M393.3 598.14L393.78 598.16M393.78 598.16L394.26 598.18M394.26 598.18L394.74 598.2M394.74 598.2L395.22 598.22M395.22 598.22L395.71 598.23M395.71 598.23L396.19 598.25M396.19 598.25L396.67 598.26M396.67 598.26L397.15 598.27M397.15 598.27L397.63 598.28M397.63 598.28L398.12 598.29M398.12 598.29L398.6 598.29M398.6 598.29L399.08 598.3M399.08 598.3L399.56 598.3M399.56 598.3L400.04 598.3M400.04 598.3L400.53 598.3M400.53 598.3L401.01 598.3M401.01 598.3L401.49 598.29M401.49 598.29L401.97 598.29M401.97 598.29L402.46 598.28M402.46 598.28L402.94 598.27M402.94 598.27L403.42 598.26M403.42 598.26L403.9 598.25M403.9 598.25L404.39 598.23M404.39 598.23L404.87 598.22M404.87 598.22L405.35 598.2M405.35 598.2L405.84 598.18M405.84 598.18L406.32 598.16M406.32 598.16L406.8 598.13M406.8 598.13L407.29 598.11M407.29 598.11L407.77 598.08M407.77 598.08L408.25 598.06M408.25 598.06L408.74 598.03M408.74 598.03L409.22 598M409.22 598L409.7 597.96M409.7 597.96L410.19 597.93M410.19 597.93L410.67 597.89M410.67 597.89L411.16 597.86M411.16 597.86L411.64 597.82M411.64 597.82L412.12 597.78M412.12 597.78L412.61 597.73M412.61 597.73L413.09 597.69M413.09 597.69L413.58 597.64M413.58 597.64L414.06 597.6M414.06 597.6L414.55 597.55M414.55 597.55L415.03 597.5M415.03 597.5L415.51 597.45M415.51 597.45L416 597.39M416 597.39L416.48 597.34M416.48 597.34L416.97 597.28M416.97 597.28L417.45 597.23M417.45 597.23L417.94 597.17M417.94 597.17L418.42 597.11M418.42 597.11L418.91 597.05M418.91 597.05L419.39 596.98M419.39 596.98L419.88 596.92M419.88 596.92L420.36 596.85M420.36 596.85L420.85 596.78M420.85 596.78L421.33 596.71M421.33 596.71L421.82 596.64M421.82 596.64L422.3 596.57M422.3 596.57L422.79 596.5M422.79 596.5L423.27 596.43M423.27 596.43L423.76 596.35M423.76 596.35L424.25 596.27M424.25 596.27L424.73 596.19M424.73 596.19L425.22 596.11M425.22 596.11L425.7 596.03M425.7 596.03L426.19 595.95M426.19 595.95L426.67 595.87M426.67 595.87L427.16 595.78M427.16 595.78L427.65 595.69M427.65 595.69L428.13 595.61M428.13 595.61L428.62 595.52M428.62 595.52L429.1 595.43M429.1 595.43L429.59 595.33M429.59 595.33L430.08 595.24M430.08 595.24L430.56 595.15M430.56 595.15L431.05 595.05"
     fill="none"
     stroke="black"
     stroke-width="0.5"
     id="path3" />
  <path
     d="M431.05 595.05L432.34 594.59M432.34 594.59L433.44 593.79M433.44 593.79L434.26 592.7M434.26 592.7L434.74 591.42"
     fill="none"
     stroke="black"
     stroke-width="0.5"
     id="path4" />
  <path
     d="M434.74 591.42L442.6 554.75"
     fill="none"
     stroke="black"
     stroke-width="0.5"
     id="path5" />
  <path
     d="M442.6 554.75L452.21 552.96M452.21 552.96L461.74 550.8M461.74 550.8L471.18 548.29M471.18 548.29L480.52 545.42M480.52 545.42L489.75 542.19M489.75 542.19L498.84 538.63M498.84 538.63L507.8 534.72M507.8 534.72L516.6 530.47M516.6 530.47L525.23 525.9M525.23 525.9L533.69 521M533.69 521L541.95 515.78M541.95 515.78L550.01 510.26"
     fill="none"
     stroke="black"
     stroke-width="0.5"
     id="path6" />
  <path
     d="M550.01 510.26L581.81 530.39"
     fill="none"
     stroke="black"
     stroke-width="0.5"
     id="path7" />
  <path
     d="M581.81 530.39L583.04 530.94M583.04 530.94L584.38 531.12M584.38 531.12L585.71 530.91M585.71 530.91L586.93 530.33"
     fill="none"
     stroke="black"
     stroke-width="0.5"
     id="path8" />
  <path
     d="M586.93 530.33L587.34 530.06M587.34 530.06L587.74 529.79M587.74 529.79L588.15 529.52M588.15 529.52L588.55 529.25M588.55 529.25L588.95 528.97M588.95 528.97L589.36 528.7M589.36 528.7L589.76 528.42M589.76 528.42L590.16 528.14M590.16 528.14L590.55 527.87M590.55 527.87L590.95 527.59M590.95 527.59L591.35 527.31M591.35 527.31L591.75 527.02M591.75 527.02L592.14 526.74M592.14 526.74L592.54 526.46M592.54 526.46L592.93 526.18M592.93 526.18L593.32 525.89M593.32 525.89L593.71 525.6M593.71 525.6L594.1 525.32M594.1 525.32L594.49 525.03M594.49 525.03L594.88 524.74M594.88 524.74L595.27 524.45M595.27 524.45L595.66 524.16M595.66 524.16L596.04 523.87M596.04 523.87L596.43 523.57M596.43 523.57L596.81 523.28M596.81 523.28L597.19 522.98M597.19 522.98L597.58 522.69M597.58 522.69L597.96 522.39M597.96 522.39L598.34 522.09M598.34 522.09L598.72 521.79M598.72 521.79L599.09 521.49M599.09 521.49L599.47 521.19M599.47 521.19L599.85 520.88M599.85 520.88L600.22 520.58M600.22 520.58L600.6 520.27M600.6 520.27L600.97 519.97M600.97 519.97L601.34 519.66M601.34 519.66L601.71 519.35M601.71 519.35L602.08 519.04M602.08 519.04L602.45 518.73M602.45 518.73L602.82 518.42M602.82 518.42L603.18 518.1M603.18 518.1L603.55 517.79M603.55 517.79L603.91 517.47M603.91 517.47L604.28 517.16M604.28 517.16L604.64 516.84M604.64 516.84L605 516.52M605 516.52L605.36 516.2M605.36 516.2L605.72 515.88M605.72 515.88L606.08 515.55M606.08 515.55L606.43 515.23M606.43 515.23L606.79 514.9M606.79 514.9L607.14 514.58M607.14 514.58L607.49 514.25M607.49 514.25L607.85 513.92M607.85 513.92L608.2 513.59M608.2 513.59L608.55 513.26M608.55 513.26L608.9 512.92M608.9 512.92L609.24 512.59M609.24 512.59L609.59 512.25M609.59 512.25L609.93 511.92M609.93 511.92L610.28 511.58M610.28 511.58L610.62 511.24M610.62 511.24L610.96 510.9M610.96 510.9L611.3 510.56M611.3 510.56L611.64 510.22M611.64 510.22L611.98 509.87M611.98 509.87L612.32 509.53M612.32 509.53L612.65 509.18M612.65 509.18L612.99 508.83M612.99 508.83L613.32 508.48M613.32 508.48L613.65 508.13M613.65 508.13L613.98 507.78M613.98 507.78L614.32 507.43M614.32 507.43L614.64 507.07M614.64 507.07L614.97 506.72M614.97 506.72L615.3 506.36M615.3 506.36L615.62 506M615.62 506L615.95 505.64M615.95 505.64L616.27 505.28M616.27 505.28L616.59 504.92M616.59 504.92L616.92 504.56M616.92 504.56L617.24 504.19M617.24 504.19L617.55 503.83M617.55 503.83L617.87 503.46M617.87 503.46L618.19 503.1M618.19 503.1L618.5 502.73M618.5 502.73L618.82 502.36M618.82 502.36L619.13 501.99M619.13 501.99L619.44 501.61M619.44 501.61L619.76 501.24M619.76 501.24L620.07 500.87M620.07 500.87L620.38 500.49M620.38 500.49L620.68 500.11M620.68 500.11L620.99 499.74M620.99 499.74L621.3 499.36M621.3 499.36L621.6 498.98M621.6 498.98L621.91 498.6M621.91 498.6L622.21 498.21M622.21 498.21L622.51 497.83M622.51 497.83L622.81 497.45M622.81 497.45L623.11 497.06M623.11 497.06L623.41 496.67M623.41 496.67L623.71 496.29M623.71 496.29L624.01 495.9M624.01 495.9L624.3 495.51M624.3 495.51L624.6 495.12M624.6 495.12L624.89 494.72M624.89 494.72L625.19 494.33M625.19 494.33L625.48 493.94M625.48 493.94L625.77 493.54M625.77 493.54L626.06 493.15M626.06 493.15L626.35 492.75M626.35 492.75L626.64 492.35M626.64 492.35L626.93 491.95M626.93 491.95L627.21 491.55M627.21 491.55L627.5 491.15M627.5 491.15L627.79 490.75M627.79 490.75L628.07 490.35M628.07 490.35L628.35 489.94M628.35 489.94L628.64 489.54M628.64 489.54L628.92 489.13M628.92 489.13L629.2 488.72M629.2 488.72L629.48 488.32M629.48 488.32L629.76 487.91M629.76 487.91L630.03 487.5M630.03 487.5L630.31 487.09M630.31 487.09L630.59 486.68"
     fill="none"
     stroke="black"
     stroke-width="0.5"
     id="path9" />
  <path
     d="M630.59 486.68L631.17 485.44M631.17 485.44L631.38 484.09M631.38 484.09L631.19 482.74M631.19 482.74L630.63 481.5"
     fill="none"
     stroke="black"
     stroke-width="0.5"
     id="path10" />
  <path
     d="M630.63 481.5L610.26 450.01"
     fill="none"
     stroke="black"
     stroke-width="0.5"
     id="path11" />
  <path
     d="M610.26 450.01L615.78 441.95M615.78 441.95L621 433.69M621 433.69L625.9 425.23M625.9 425.23L630.47 416.6M630.47 416.6L634.72 407.8M634.72 407.8L638.63 398.84M638.63 398.84L642.19 389.75M642.19 389.75L645.42 380.52M645.42 380.52L648.29 371.18M648.29 371.18L650.8 361.74M650.8 361.74L652.96 352.21M652.96 352.21L654.75 342.6"
     fill="none"
     stroke="black"
     stroke-width="0.5"
     id="path12" />
  <path
     d="M654.75 342.6L691.47 334.35"
     fill="none"
     stroke="black"
     stroke-width="0.5"
     id="path13" />
  <path
     d="M691.47 334.35L692.73 333.87M692.73 333.87L693.8 333.05M693.8 333.05L694.6 331.96M694.6 331.96L695.05 330.69"
     fill="none"
     stroke="black"
     stroke-width="0.5"
     id="path14" />
  <path
     d="M695.05 330.69L695.15 330.21M695.15 330.21L695.24 329.73M695.24 329.73L695.34 329.25M695.34 329.25L695.43 328.78M695.43 328.78L695.52 328.3M695.52 328.3L695.61 327.82M695.61 327.82L695.7 327.34M695.7 327.34L695.78 326.86M695.78 326.86L695.87 326.38M695.87 326.38L695.95 325.9M695.95 325.9L696.03 325.42M696.03 325.42L696.12 324.95M696.12 324.95L696.2 324.47M696.2 324.47L696.27 323.99M696.27 323.99L696.35 323.51M696.35 323.51L696.43 323.03M696.43 323.03L696.5 322.55M696.5 322.55L696.58 322.07M696.58 322.07L696.65 321.59M696.65 321.59L696.72 321.11M696.72 321.11L696.79 320.63M696.79 320.63L696.85 320.15M696.85 320.15L696.92 319.67M696.92 319.67L696.98 319.19M696.98 319.19L697.05 318.71M697.05 318.71L697.11 318.23M697.11 318.23L697.17 317.75M697.17 317.75L697.23 317.28M697.23 317.28L697.29 316.8M697.29 316.8L697.34 316.32M697.34 316.32L697.4 315.84M697.4 315.84L697.45 315.35M697.45 315.35L697.5 314.87M697.5 314.87L697.55 314.39M697.55 314.39L697.6 313.91M697.6 313.91L697.65 313.43M697.65 313.43L697.69 312.95M697.69 312.95L697.74 312.47M697.74 312.47L697.78 311.99M697.78 311.99L697.82 311.51M697.82 311.51L697.86 311.03M697.86 311.03L697.89 310.55M697.89 310.55L697.93 310.07M697.93 310.07L697.96 309.59M697.96 309.59L698 309.11M698 309.11L698.03 308.63M698.03 308.63L698.06 308.15M698.06 308.15L698.09 307.66M698.09 307.66L698.11 307.18M698.11 307.18L698.14 306.7M698.14 306.7L698.16 306.22M698.16 306.22L698.18 305.74M698.18 305.74L698.2 305.26M698.2 305.26L698.22 304.78M698.22 304.78L698.23 304.29M698.23 304.29L698.25 303.81M698.25 303.81L698.26 303.33M698.26 303.33L698.27 302.85M698.27 302.85L698.28 302.37M698.28 302.37L698.29 301.88M698.29 301.88L698.29 301.4M698.29 301.4L698.3 300.92M698.3 300.92L698.3 300.44M698.3 300.44L698.3 299.96M698.3 299.96L698.3 299.47M698.3 299.47L698.3 298.99M698.3 298.99L698.29 298.51M698.29 298.51L698.29 298.03M698.29 298.03L698.28 297.54M698.28 297.54L698.27 297.06M698.27 297.06L698.26 296.58M698.26 296.58L698.25 296.1M698.25 296.1L698.23 295.61M698.23 295.61L698.22 295.13M698.22 295.13L698.2 294.65M698.2 294.65L698.18 294.16M698.18 294.16L698.16 293.68M698.16 293.68L698.13 293.2M698.13 293.2L698.11 292.71M698.11 292.71L698.08 292.23M698.08 292.23L698.06 291.75M698.06 291.75L698.03 291.26M698.03 291.26L698 290.78M698 290.78L697.96 290.3M697.96 290.3L697.93 289.81M697.93 289.81L697.89 289.33M697.89 289.33L697.86 288.84M697.86 288.84L697.82 288.36M697.82 288.36L697.78 287.88M697.78 287.88L697.73 287.39M697.73 287.39L697.69 286.91M697.69 286.91L697.64 286.42M697.64 286.42L697.6 285.94M697.6 285.94L697.55 285.45M697.55 285.45L697.5 284.97M697.5 284.97L697.45 284.49M697.45 284.49L697.39 284M697.39 284L697.34 283.52M697.34 283.52L697.28 283.03M697.28 283.03L697.23 282.55M697.23 282.55L697.17 282.06M697.17 282.06L697.11 281.58M697.11 281.58L697.05 281.09M697.05 281.09L696.98 280.61M696.98 280.61L696.92 280.12M696.92 280.12L696.85 279.64M696.85 279.64L696.78 279.15M696.78 279.15L696.71 278.67M696.71 278.67L696.64 278.18M696.64 278.18L696.57 277.7M696.57 277.7L696.5 277.21M696.5 277.21L696.43 276.73M696.43 276.73L696.35 276.24M696.35 276.24L696.27 275.75M696.27 275.75L696.19 275.27M696.19 275.27L696.11 274.78M696.11 274.78L696.03 274.3M696.03 274.3L695.95 273.81M695.95 273.81L695.87 273.33M695.87 273.33L695.78 272.84M695.78 272.84L695.69 272.35M695.69 272.35L695.61 271.87M695.61 271.87L695.52 271.38M695.52 271.38L695.43 270.9M695.43 270.9L695.33 270.41M695.33 270.41L695.24 269.92M695.24 269.92L695.15 269.44M695.15 269.44L695.05 268.95"
     fill="none"
     stroke="black"
     stroke-width="0.5"
     id="path15" />
  <path
     d="M695.05 268.95L694.59 267.66M694.59 267.66L693.79 266.56M693.79 266.56L692.7 265.74M692.7 265.74L691.42 265.26"
     fill="none"
     stroke="black"
     stroke-width="0.5"
     id="path16" />
  <path
     d="M691.42 265.26L654.75 257.4"
     fill="none"
     stroke="black"
     stroke-width="0.5"
     id="path17" />
  <path
     d="M654.75 257.4L652.9 247.54M652.9 247.54L650.68 237.76M650.68 237.76L648.07 228.07M648.07 228.07L645.09 218.5M645.09 218.5L641.74 209.04M641.74 209.04L638.03 199.73M638.03 199.73L633.96 190.56"
     fill="none"
     stroke="black"
     stroke-width="0.5"
     id="path18" />
  <path
     d="M593.02 206.15L598.49 205.34M598.49 205.34L603.9 204.19M603.9 204.19L609.23 202.71M609.23 202.71L614.46 200.9M614.46 200.9L619.56 198.78M619.56 198.78L624.53 196.34M624.53 196.34L629.33 193.6M629.33 193.6L633.96 190.56"
     fill="none"
     stroke="black"
     stroke-width="0.5"
     id="path19" />
  <path
     d="M306.15 493.02L314.48 496.85M314.48 496.85L322.96 500.32M322.96 500.32L331.57 503.42M331.57 503.42L340.32 506.16M340.32 506.16L349.17 508.52M349.17 508.52L358.11 510.5M358.11 510.5L367.14 512.09M367.14 512.09L376.22 513.3M376.22 513.3L385.34 514.12M385.34 514.12L394.49 514.55M394.49 514.55L403.65 514.59M403.65 514.59L412.81 514.24M412.81 514.24L421.94 513.5M421.94 513.5L431.03 512.37M431.03 512.37L440.06 510.85M440.06 510.85L449.02 508.95M449.02 508.95L457.9 506.67M457.9 506.67L466.66 504.01M466.66 504.01L475.31 500.98M475.31 500.98L483.82 497.58M483.82 497.58L492.17 493.82M492.17 493.82L500.36 489.71M500.36 489.71L508.36 485.26M508.36 485.26L516.17 480.46M516.17 480.46L523.77 475.34M523.77 475.34L531.14 469.9M531.14 469.9L538.27 464.15M538.27 464.15L545.15 458.1M545.15 458.1L551.76 451.76M551.76 451.76L558.1 445.15M558.1 445.15L564.15 438.27M564.15 438.27L569.9 431.14M569.9 431.14L575.34 423.77M575.34 423.77L580.46 416.17M580.46 416.17L585.26 408.36M585.26 408.36L589.71 400.36M589.71 400.36L593.82 392.17M593.82 392.17L597.58 383.82M597.58 383.82L600.98 375.31M600.98 375.31L604.01 366.66M604.01 366.66L606.67 357.9M606.67 357.9L608.95 349.02M608.95 349.02L610.85 340.06M610.85 340.06L612.37 331.03M612.37 331.03L613.5 321.94M613.5 321.94L614.24 312.81M614.24 312.81L614.59 303.65M614.59 303.65L614.55 294.49M614.55 294.49L614.12 285.34M614.12 285.34L613.3 276.22M613.3 276.22L612.09 267.14M612.09 267.14L610.5 258.11M610.5 258.11L608.52 249.17M608.52 249.17L606.16 240.32M606.16 240.32L603.42 231.57M603.42 231.57L600.32 222.96M600.32 222.96L596.85 214.48M596.85 214.48L593.02 206.15"
     fill="none"
     stroke="black"
     stroke-width="0.5"
     id="path20" />
  <path
     d="M290.56 533.96L293.6 529.33M293.6 529.33L296.34 524.53M296.34 524.53L298.78 519.56M298.78 519.56L300.9 514.46M300.9 514.46L302.71 509.23M302.71 509.23L304.19 503.9M304.19 503.9L305.34 498.49M305.34 498.49L306.15 493.02"
     fill="none"
     stroke="black"
     stroke-width="0.5"
     id="path21" />
  <path
     d="M290.56 533.96L299.73 538.03M299.73 538.03L309.04 541.74M309.04 541.74L318.5 545.09M318.5 545.09L328.07 548.07M328.07 548.07L337.76 550.68M337.76 550.68L347.54 552.9M347.54 552.9L357.4 554.75"
     fill="none"
     stroke="black"
     stroke-width="0.5"
     id="path22" />
  <path
     d="M360.46 409.41L308.62 461.25"
     fill="none"
     stroke="black"
     stroke-width="0.5"
     id="path23" />
  <path
     d="M308.62 461.25L316.08 465.25M316.08 465.25L323.71 468.91M323.71 468.91L331.49 472.21M331.49 472.21L339.42 475.16M339.42 475.16L347.48 477.74M347.48 477.74L355.64 479.95M355.64 479.95L363.9 481.79M363.9 481.79L372.23 483.25M372.23 483.25L380.63 484.32M380.63 484.32L389.06 485.02M389.06 485.02L397.51 485.32M397.51 485.32L405.97 485.24M405.97 485.24L414.42 484.78M414.42 484.78L422.83 483.93M422.83 483.93L431.2 482.69M431.2 482.69L439.51 481.08M439.51 481.08L447.73 479.09M447.73 479.09L455.85 476.72M455.85 476.72L463.86 473.99M463.86 473.99L471.73 470.9M471.73 470.9L479.45 467.44M479.45 467.44L487.01 463.64M487.01 463.64L494.39 459.5M494.39 459.5L501.57 455.03M501.57 455.03L508.54 450.23M508.54 450.23L515.28 445.13M515.28 445.13L521.78 439.71M521.78 439.71L528.03 434.01M528.03 434.01L534.01 428.03M534.01 428.03L539.71 421.78M539.71 421.78L545.13 415.28M545.13 415.28L550.23 408.54M550.23 408.54L555.03 401.57M555.03 401.57L559.5 394.39M559.5 394.39L563.64 387.01M563.64 387.01L567.44 379.45M567.44 379.45L570.9 371.73M570.9 371.73L573.99 363.86M573.99 363.86L576.72 355.85M576.72 355.85L579.09 347.73M579.09 347.73L581.08 339.51M581.08 339.51L582.69 331.2M582.69 331.2L583.93 322.83M583.93 322.83L584.78 314.42M584.78 314.42L585.24 305.97M585.24 305.97L585.32 297.51M585.32 297.51L585.02 289.06M585.02 289.06L584.32 280.63M584.32 280.63L583.25 272.23M583.25 272.23L581.79 263.9M581.79 263.9L579.95 255.64M579.95 255.64L577.74 247.48M577.74 247.48L575.16 239.42M575.16 239.42L572.21 231.49M572.21 231.49L568.91 223.71M568.91 223.71L565.25 216.08M565.25 216.08L561.25 208.62"
     fill="none"
     stroke="black"
     stroke-width="0.5"
     id="path24" />
  <path
     d="M561.25 208.62L509.41 260.46"
     fill="none"
     stroke="black"
     stroke-width="0.5"
     id="path25" />
  <path
     d="M514.98 282.3L513.99 276.74M513.99 276.74L512.73 271.24M512.73 271.24L511.2 265.81M511.2 265.81L509.41 260.46"
     fill="none"
     stroke="black"
     stroke-width="0.5"
     id="path26" />
  <path
     d="M514.98 282.3L537.29 282.53"
     fill="none"
     stroke="black"
     stroke-width="0.5"
     id="path27" />
  <path
     d="M539.61 284.6L539.35 283.79M539.35 283.79L538.84 283.13M538.84 283.13L538.12 282.69M538.12 282.69L537.29 282.53"
     fill="none"
     stroke="black"
     stroke-width="0.5"
     id="path28" />
  <path
     d="M539.61 284.6L539.66 285.08M539.66 285.08L539.72 285.56M539.72 285.56L539.77 286.04M539.77 286.04L539.83 286.52M539.83 286.52L539.88 287M539.88 287L539.93 287.49M539.93 287.49L539.98 287.97M539.98 287.97L540.02 288.45M540.02 288.45L540.07 288.93M540.07 288.93L540.11 289.42M540.11 289.42L540.15 289.9M540.15 289.9L540.19 290.39M540.19 290.39L540.23 290.87M540.23 290.87L540.27 291.35M540.27 291.35L540.3 291.84M540.3 291.84L540.33 292.32M540.33 292.32L540.36 292.8M540.36 292.8L540.39 293.29M540.39 293.29L540.42 293.77M540.42 293.77L540.44 294.25M540.44 294.25L540.47 294.73M540.47 294.73L540.49 295.21M540.49 295.21L540.51 295.69M540.51 295.69L540.52 296.17M540.52 296.17L540.54 296.64M540.54 296.64L540.55 297.12M540.55 297.12L540.56 297.6M540.56 297.6L540.57 298.07M540.57 298.07L540.58 298.54M540.58 298.54L540.58 299.02M540.58 299.02L540.58 299.49M540.58 299.49L540.58 299.96M540.58 299.96L540.58 300.42M540.58 300.42L540.58 300.89M540.58 300.89L540.57 301.36M540.57 301.36L540.56 301.82M540.56 301.82L540.55 302.29M540.55 302.29L540.54 302.75M540.54 302.75L540.52 303.21M540.52 303.21L540.5 303.67M540.5 303.67L540.49 304.13M540.49 304.13L540.46 304.59M540.46 304.59L540.44 305.05M540.44 305.05L540.42 305.5M540.42 305.5L540.39 305.96M540.39 305.96L540.36 306.42M540.36 306.42L540.33 306.87M540.33 306.87L540.29 307.33M540.29 307.33L540.26 307.78M540.26 307.78L540.22 308.24M540.22 308.24L540.18 308.69M540.18 308.69L540.14 309.14M540.14 309.14L540.1 309.6M540.1 309.6L540.05 310.05M540.05 310.05L540.01 310.51M540.01 310.51L539.96 310.96M539.96 310.96L539.91 311.41M539.91 311.41L539.86 311.87M539.86 311.87L539.8 312.32M539.8 312.32L539.75 312.78M539.75 312.78L539.69 313.23M539.69 313.23L539.63 313.69M539.63 313.69L539.57 314.15M539.57 314.15L539.51 314.6"
     fill="none"
     stroke="black"
     stroke-width="0.5"
     id="path29" />
  <path
     d="M537.29 316.63L538.08 316.45M538.08 316.45L538.76 316.02M538.76 316.02L539.26 315.38M539.26 315.38L539.51 314.6"
     fill="none"
     stroke="black"
     stroke-width="0.5"
     id="path30" />
  <path
     d="M537.29 316.63L514.98 317.7"
     fill="none"
     stroke="black"
     stroke-width="0.5"
     id="path31" />
  <path
     d="M493.82 368.79L497.36 363.69M497.36 363.69L500.61 358.41M500.61 358.41L503.58 352.96M503.58 352.96L506.26 347.37M506.26 347.37L508.63 341.64M508.63 341.64L510.7 335.79M510.7 335.79L512.45 329.84M512.45 329.84L513.88 323.81M513.88 323.81L514.98 317.7"
     fill="none"
     stroke="black"
     stroke-width="0.5"
     id="path32" />
  <path
     d="M493.82 368.79L509.44 384.72"
     fill="none"
     stroke="black"
     stroke-width="0.5"
     id="path33" />
  <path
     d="M509.61 387.82L510 387.08M510 387.08L510.1 386.24M510.1 386.24L509.91 385.42M509.91 385.42L509.44 384.72"
     fill="none"
     stroke="black"
     stroke-width="0.5"
     id="path34" />
  <path
     d="M509.61 387.82L509.31 388.21M509.31 388.21L509 388.59M509 388.59L508.7 388.97M508.7 388.97L508.39 389.36M508.39 389.36L508.09 389.73M508.09 389.73L507.78 390.11M507.78 390.11L507.47 390.49M507.47 390.49L507.17 390.86M507.17 390.86L506.86 391.24M506.86 391.24L506.55 391.61M506.55 391.61L506.24 391.98M506.24 391.98L505.92 392.34M505.92 392.34L505.61 392.71M505.61 392.71L505.3 393.08M505.3 393.08L504.98 393.44M504.98 393.44L504.67 393.8M504.67 393.8L504.35 394.16M504.35 394.16L504.03 394.52M504.03 394.52L503.72 394.87M503.72 394.87L503.4 395.23M503.4 395.23L503.08 395.58M503.08 395.58L502.75 395.93M502.75 395.93L502.43 396.28M502.43 396.28L502.11 396.63M502.11 396.63L501.78 396.97M501.78 396.97L501.46 397.31M501.46 397.31L501.13 397.66M501.13 397.66L500.8 397.99M500.8 397.99L500.47 398.33M500.47 398.33L500.14 398.67M500.14 398.67L499.81 399M499.81 399L499.48 399.33M499.48 399.33L499.15 399.66M499.15 399.66L498.81 399.99M498.81 399.99L498.48 400.32M498.48 400.32L498.14 400.64M498.14 400.64L497.8 400.96M497.8 400.96L497.47 401.28M497.47 401.28L497.13 401.6M497.13 401.6L496.79 401.91M496.79 401.91L496.44 402.23M496.44 402.23L496.1 402.54M496.1 402.54L495.76 402.85M495.76 402.85L495.41 403.16M495.41 403.16L495.07 403.47M495.07 403.47L494.72 403.77M494.72 403.77L494.37 404.07M494.37 404.07L494.02 404.38M494.02 404.38L493.67 404.67M493.67 404.67L493.32 404.97M493.32 404.97L492.97 405.27M492.97 405.27L492.62 405.56M492.62 405.56L492.27 405.86M492.27 405.86L491.91 406.15M491.91 406.15L491.56 406.44M491.56 406.44L491.2 406.73M491.2 406.73L490.84 407.01M490.84 407.01L490.48 407.3M490.48 407.3L490.13 407.58M490.13 407.58L489.77 407.86M489.77 407.86L489.4 408.14M489.4 408.14L489.04 408.42M489.04 408.42L488.68 408.7M488.68 408.7L488.32 408.97"
     fill="none"
     stroke="black"
     stroke-width="0.5"
     id="path35" />
  <path
     d="M485.31 408.84L486 409.27M486 409.27L486.79 409.45M486.79 409.45L487.6 409.34M487.6 409.34L488.32 408.97"
     fill="none"
     stroke="black"
     stroke-width="0.5"
     id="path36" />
  <path
     d="M485.31 408.84L468.79 393.82"
     fill="none"
     stroke="black"
     stroke-width="0.5"
     id="path37" />
  <path
     d="M417.7 414.98L423.81 413.88M423.81 413.88L429.84 412.45M429.84 412.45L435.79 410.7M435.79 410.7L441.64 408.63M441.64 408.63L447.37 406.26M447.37 406.26L452.96 403.58M452.96 403.58L458.41 400.61M458.41 400.61L463.69 397.36M463.69 397.36L468.79 393.82"
     fill="none"
     stroke="black"
     stroke-width="0.5"
     id="path38" />
  <path
     d="M417.7 414.98L417.47 437.29"
     fill="none"
     stroke="black"
     stroke-width="0.5"
     id="path39" />
  <path
     d="M415.4 439.61L416.21 439.35M416.21 439.35L416.87 438.84M416.87 438.84L417.31 438.12M417.31 438.12L417.47 437.29"
     fill="none"
     stroke="black"
     stroke-width="0.5"
     id="path40" />
  <path
     d="M415.4 439.61L414.92 439.66M414.92 439.66L414.43 439.72M414.43 439.72L413.95 439.78M413.95 439.78L413.46 439.83M413.46 439.83L412.98 439.88M412.98 439.88L412.49 439.93M412.49 439.93L412.01 439.98M412.01 439.98L411.53 440.03M411.53 440.03L411.05 440.07M411.05 440.07L410.56 440.12M410.56 440.12L410.08 440.16M410.08 440.16L409.6 440.2M409.6 440.2L409.12 440.23M409.12 440.23L408.64 440.27M408.64 440.27L408.16 440.31M408.16 440.31L407.68 440.34M407.68 440.34L407.21 440.37M407.21 440.37L406.73 440.4M406.73 440.4L406.25 440.42M406.25 440.42L405.78 440.45M405.78 440.45L405.3 440.47M405.3 440.47L404.82 440.49M404.82 440.49L404.35 440.51M404.35 440.51L403.88 440.53M403.88 440.53L403.4 440.54M403.4 440.54L402.93 440.55M402.93 440.55L402.46 440.56M402.46 440.56L401.99 440.57M401.99 440.57L401.51 440.58M401.51 440.58L401.04 440.58M401.04 440.58L400.57 440.58M400.57 440.58L400.11 440.58M400.11 440.58L399.64 440.58M399.64 440.58L399.17 440.58M399.17 440.58L398.7 440.57M398.7 440.57L398.23 440.56M398.23 440.56L397.77 440.55M397.77 440.55L397.3 440.54M397.3 440.54L396.84 440.52M396.84 440.52L396.37 440.5M396.37 440.5L395.91 440.48M395.91 440.48L395.45 440.46M395.45 440.46L394.98 440.44M394.98 440.44L394.52 440.41M394.52 440.41L394.06 440.38M394.06 440.38L393.6 440.35M393.6 440.35L393.14 440.32M393.14 440.32L392.68 440.29M392.68 440.29L392.22 440.25M392.22 440.25L391.76 440.22M391.76 440.22L391.3 440.18M391.3 440.18L390.85 440.14M390.85 440.14L390.39 440.09M390.39 440.09L389.93 440.05M389.93 440.05L389.48 440M389.48 440L389.02 439.95M389.02 439.95L388.57 439.9M388.57 439.9L388.11 439.85M388.11 439.85L387.66 439.8M387.66 439.8L387.2 439.74M387.2 439.74L386.75 439.69M386.75 439.69L386.3 439.63M386.3 439.63L385.85 439.57M385.85 439.57L385.4 439.51"
     fill="none"
     stroke="black"
     stroke-width="0.5"
     id="path41" />
  <path
     d="M383.37 437.29L383.55 438.08M383.55 438.08L383.98 438.76M383.98 438.76L384.62 439.26M384.62 439.26L385.4 439.51"
     fill="none"
     stroke="black"
     stroke-width="0.5"
     id="path42" />
  <path
     d="M383.37 437.29L382.3 414.98"
     fill="none"
     stroke="black"
     stroke-width="0.5"
     id="path43" />
  <path
     d="M360.46 409.41L365.81 411.2M365.81 411.2L371.24 412.73M371.24 412.73L376.74 413.99M376.74 413.99L382.3 414.98"
     fill="none"
     stroke="black"
     stroke-width="0.5"
     id="path44" />
  <path
     d="m 381.36,388.52 5.89,1.04 m 0,0 5.95,0.64 m 0,0 5.99,0.26 m 0,0 5.98,-0.15 m 0,0 5.96,-0.54 m 0,0 5.92,-0.93 m 0,0 5.84,-1.32 m 0,0 5.74,-1.71 m 0,0 5.61,-2.08 m 0,0 5.47,-2.45 m 0,0 5.28,-2.8 m 0,0 5.1,-3.15 m 0,0 4.87,-3.48 m 0,0 4.63,-3.79 m 0,0 4.37,-4.1 m 0,0 4.1,-4.37 m 0,0 3.79,-4.63 m 0,0 3.48,-4.87 m 0,0 3.15,-5.1 m 0,0 2.8,-5.28 m 0,0 2.45,-5.47 m 0,0 2.08,-5.61 m 0,0 1.71,-5.74 m 0,0 1.32,-5.84 m 0,0 0.93,-5.92 m 0,0 0.54,-5.96 m 0,0 0.15,-5.98 m 0,0 -0.26,-5.99 m 0,0 -0.64,-5.95 m 0,0 -1.04,-5.89 m 0,0 -107.16,107.16"
     fill="none"
     stroke="#000000"
     stroke-width="0.5"
     id="path45"
     style="display:none" />
  <path
     d="M262.06 423.79L266.61 428.67M266.61 428.67L271.33 433.39M271.33 433.39L276.21 437.94M276.21 437.94L537.94 176.21M537.94 176.21L537.94 176.21M537.94 176.21L533.39 171.33M533.39 171.33L528.67 166.61M528.67 166.61L523.79 162.06M523.79 162.06L262.06 423.79"
     fill="none"
     stroke="black"
     stroke-width="0.5"
     id="path46" />
  <path
     d="M203.72 554.57L208.89 555.36M208.89 555.36L214.11 555.78M214.11 555.78L219.35 555.83M219.35 555.83L224.58 555.5M224.58 555.5L229.77 554.8M229.77 554.8L234.89 553.73M234.89 553.73L239.93 552.29M239.93 552.29L244.85 550.5M244.85 550.5L249.63 548.36M249.63 548.36L254.24 545.89M254.24 545.89L258.67 543.09M258.67 543.09L262.89 539.98M262.89 539.98L266.87 536.58M266.87 536.58L270.6 532.91M270.6 532.91L274.06 528.97M274.06 528.97L277.22 524.8M277.22 524.8L280.08 520.42M280.08 520.42L282.62 515.84M282.62 515.84L284.83 511.09M284.83 511.09L286.69 506.19M286.69 506.19L288.2 501.18M288.2 501.18L289.34 496.07M289.34 496.07L290.12 490.89M290.12 490.89L290.52 485.66M290.52 485.66L290.55 480.43M290.55 480.43L290.2 475.2M290.2 475.2L289.49 470.02M289.49 470.02L288.4 464.89M288.4 464.89L564.89 188.4M564.89 188.4L564.89 188.4M564.89 188.4L570.02 189.49M570.02 189.49L575.2 190.2M575.2 190.2L580.43 190.55M580.43 190.55L585.66 190.52M585.66 190.52L590.89 190.12M590.89 190.12L596.07 189.34M596.07 189.34L601.18 188.2M601.18 188.2L606.19 186.69M606.19 186.69L611.09 184.83M611.09 184.83L615.84 182.62M615.84 182.62L620.42 180.08M620.42 180.08L624.8 177.22M624.8 177.22L628.97 174.06M628.97 174.06L632.91 170.6M632.91 170.6L636.58 166.87M636.58 166.87L639.98 162.89M639.98 162.89L643.09 158.67M643.09 158.67L645.89 154.24M645.89 154.24L648.36 149.63M648.36 149.63L650.5 144.85M650.5 144.85L652.29 139.93M652.29 139.93L653.73 134.89M653.73 134.89L654.8 129.77M654.8 129.77L655.5 124.58M655.5 124.58L655.83 119.35M655.83 119.35L655.78 114.11M655.78 114.11L655.36 108.89M655.36 108.89L654.57 103.72M654.57 103.72L611.18 147.11M611.18 147.11L577.88 147.11M577.88 147.11L552.89 122.12M552.89 122.12L552.89 88.82M552.89 88.82L596.28 45.43M596.28 45.43L596.28 45.43M596.28 45.43L591.11 44.64M591.11 44.64L585.89 44.22M585.89 44.22L580.65 44.17M580.65 44.17L575.42 44.5M575.42 44.5L570.23 45.2M570.23 45.2L565.11 46.27M565.11 46.27L560.07 47.71M560.07 47.71L555.15 49.5M555.15 49.5L550.37 51.64M550.37 51.64L545.76 54.11M545.76 54.11L541.33 56.91M541.33 56.91L537.11 60.02M537.11 60.02L533.13 63.42M533.13 63.42L529.4 67.09M529.4 67.09L525.94 71.03M525.94 71.03L522.78 75.2M522.78 75.2L519.92 79.58M519.92 79.58L517.38 84.16M517.38 84.16L515.17 88.91M515.17 88.91L513.31 93.81M513.31 93.81L511.8 98.82M511.8 98.82L510.66 103.93M510.66 103.93L509.88 109.11M509.88 109.11L509.48 114.34M509.48 114.34L509.45 119.57M509.45 119.57L509.8 124.8M509.8 124.8L510.51 129.98M510.51 129.98L511.6 135.11M511.6 135.11L235.11 411.6M235.11 411.6L235.11 411.6M235.11 411.6L229.98 410.51M229.98 410.51L224.8 409.8M224.8 409.8L219.57 409.45M219.57 409.45L214.34 409.48M214.34 409.48L209.11 409.88M209.11 409.88L203.93 410.66M203.93 410.66L198.82 411.8M198.82 411.8L193.81 413.31M193.81 413.31L188.91 415.17M188.91 415.17L184.16 417.38M184.16 417.38L179.58 419.92M179.58 419.92L175.2 422.78M175.2 422.78L171.03 425.94M171.03 425.94L167.09 429.4M167.09 429.4L163.42 433.13M163.42 433.13L160.02 437.11M160.02 437.11L156.91 441.33M156.91 441.33L154.11 445.76M154.11 445.76L151.64 450.37M151.64 450.37L149.5 455.15M149.5 455.15L147.71 460.07M147.71 460.07L146.27 465.11M146.27 465.11L145.2 470.23M145.2 470.23L144.5 475.42M144.5 475.42L144.17 480.65M144.17 480.65L144.22 485.89M144.22 485.89L144.64 491.11M144.64 491.11L145.43 496.28M145.43 496.28L188.82 452.89M188.82 452.89L222.12 452.89M222.12 452.89L247.11 477.88M247.11 477.88L247.11 511.18M247.11 511.18L203.72 554.57"
     fill="none"
     stroke="black"
     stroke-width="0.5"
     id="path47" />
  <path
     d="m 208.32,527.12 27.62,-27.63"
     fill="none"
     stroke="#000000"
     stroke-width="0.5"
     id="path48"
     style="display:none" />
  <path
     d="m 200.51,464.06 6.52,7.62 m 0,0 6.82,7.37 m 0,0 7.1,7.1 m 0,0 7.37,6.82 m 0,0 7.62,6.52"
     fill="none"
     stroke="#000000"
     stroke-width="0.5"
     id="path49"
     style="display:none" />
  <path
     d="m 200.51,464.06 -27.6,27.59"
     fill="none"
     stroke="#000000"
     stroke-width="0.5"
     id="path50"
     style="display:none" />
  <path
     d="m 172.91,491.65 0.23,0.32 m 0,0 0.23,0.32 m 0,0 0.23,0.32 m 0,0 0.23,0.32 m 0,0 0.23,0.32 m 0,0 0.23,0.32 m 0,0 0.23,0.32 m 0,0 0.24,0.31 m 0,0 0.23,0.32 m 0,0 0.24,0.32 m 0,0 0.23,0.31 m 0,0 0.24,0.32 m 0,0 0.23,0.31 m 0,0 0.24,0.31 m 0,0 0.24,0.31 m 0,0 0.24,0.32 m 0,0 0.24,0.31 m 0,0 0.24,0.31 m 0,0 0.24,0.31 m 0,0 0.24,0.31 m 0,0 0.24,0.31 m 0,0 0.25,0.3 m 0,0 0.24,0.31 m 0,0 0.25,0.31 m 0,0 0.24,0.3 m 0,0 0.25,0.31 m 0,0 0.24,0.3 m 0,0 0.25,0.31 m 0,0 0.25,0.3 m 0,0 0.25,0.3 m 0,0 0.25,0.3 m 0,0 0.25,0.3 m 0,0 0.25,0.31 m 0,0 0.25,0.29 m 0,0 0.26,0.3 m 0,0 0.25,0.3 m 0,0 0.25,0.3 m 0,0 0.26,0.3 m 0,0 0.25,0.29 m 0,0 0.26,0.3 m 0,0 0.26,0.29 m 0,0 0.26,0.3 m 0,0 0.26,0.29 m 0,0 0.26,0.29 m 0,0 0.26,0.29 m 0,0 0.26,0.3 m 0,0 0.26,0.29 m 0,0 0.26,0.29 m 0,0 0.27,0.28 m 0,0 0.26,0.29 m 0,0 0.27,0.29 m 0,0 0.26,0.29 m 0,0 0.27,0.28 m 0,0 0.27,0.29 m 0,0 0.27,0.28 m 0,0 0.27,0.29 m 0,0 0.27,0.28 m 0,0 0.27,0.28 m 0,0 0.27,0.28 m 0,0 0.27,0.28 m 0,0 0.28,0.28 m 0,0 0.27,0.28 m 0,0 0.28,0.28 m 0,0 0.27,0.28 m 0,0 0.28,0.27 m 0,0 0.28,0.28 m 0,0 0.28,0.27 m 0,0 0.28,0.28 m 0,0 0.28,0.27 m 0,0 0.28,0.28 m 0,0 0.28,0.27 m 0,0 0.28,0.27 m 0,0 0.29,0.27 m 0,0 0.28,0.27 m 0,0 0.29,0.27 m 0,0 0.28,0.27 m 0,0 0.29,0.26 m 0,0 0.29,0.27 m 0,0 0.29,0.27 m 0,0 0.29,0.26 m 0,0 0.29,0.27 m 0,0 0.29,0.26 m 0,0 0.29,0.26 m 0,0 0.29,0.27 m 0,0 0.29,0.26 m 0,0 0.3,0.26 m 0,0 0.29,0.26 m 0,0 0.3,0.26 m 0,0 0.3,0.26 m 0,0 0.29,0.26 m 0,0 0.3,0.25 m 0,0 0.3,0.26 m 0,0 0.3,0.26 m 0,0 0.3,0.25 m 0,0 0.3,0.26 m 0,0 0.3,0.25 m 0,0 0.31,0.25 m 0,0 0.3,0.26 m 0,0 0.3,0.25 m 0,0 0.31,0.25 m 0,0 0.3,0.25 m 0,0 0.31,0.25 m 0,0 0.31,0.25 m 0,0 0.31,0.25 m 0,0 0.3,0.24 m 0,0 0.31,0.25 m 0,0 0.31,0.25 m 0,0 0.32,0.24 m 0,0 0.31,0.25 m 0,0 0.31,0.24 m 0,0 0.31,0.25 m 0,0 0.32,0.24 m 0,0 0.31,0.24 m 0,0 0.31,0.24 m 0,0 0.32,0.24 m 0,0 0.32,0.24 m 0,0 0.31,0.24 m 0,0 0.32,0.24 m 0,0 0.32,0.24 m 0,0 0.32,0.24 m 0,0 0.32,0.24 m 0,0 0.32,0.23 m 0,0 0.32,0.24 m 0,0 0.32,0.24 m 0,0 0.33,0.23 m 0,0 0.32,0.24 m 0,0 0.32,0.23 m 0,0 0.33,0.23"
     fill="none"
     stroke="#000000"
     stroke-width="0.5"
     id="path51"
     style="display:none" />
  <path
     d="M509.44 66.04L500.27 61.97M500.27 61.97L490.96 58.26M490.96 58.26L481.5 54.91M481.5 54.91L471.93 51.93M471.93 51.93L462.24 49.32M462.24 49.32L452.46 47.1M452.46 47.1L442.6 45.25"
     fill="none"
     stroke="black"
     stroke-width="0.5"
     id="path52" />
  <path
     d="M442.6 45.25L434.35 8.53"
     fill="none"
     stroke="black"
     stroke-width="0.5"
     id="path53" />
  <path
     d="M434.35 8.53L433.87 7.27M433.87 7.27L433.05 6.2M433.05 6.2L431.96 5.4M431.96 5.4L430.69 4.95"
     fill="none"
     stroke="black"
     stroke-width="0.5"
     id="path54" />
  <path
     d="M430.69 4.95L430.21 4.85M430.21 4.85L429.73 4.76M429.73 4.76L429.25 4.66M429.25 4.66L428.78 4.57M428.78 4.57L428.3 4.48M428.3 4.48L427.82 4.39M427.82 4.39L427.34 4.3M427.34 4.3L426.86 4.22M426.86 4.22L426.38 4.13M426.38 4.13L425.9 4.05M425.9 4.05L425.42 3.97M425.42 3.97L424.95 3.88M424.95 3.88L424.47 3.8M424.47 3.8L423.99 3.73M423.99 3.73L423.51 3.65M423.51 3.65L423.03 3.57M423.03 3.57L422.55 3.5M422.55 3.5L422.07 3.42M422.07 3.42L421.59 3.35M421.59 3.35L421.11 3.28M421.11 3.28L420.63 3.21M420.63 3.21L420.15 3.15M420.15 3.15L419.67 3.08M419.67 3.08L419.19 3.02M419.19 3.02L418.71 2.95M418.71 2.95L418.23 2.89M418.23 2.89L417.75 2.83M417.75 2.83L417.28 2.77M417.28 2.77L416.8 2.71M416.8 2.71L416.32 2.66M416.32 2.66L415.84 2.6M415.84 2.6L415.35 2.55M415.35 2.55L414.87 2.5M414.87 2.5L414.39 2.45M414.39 2.45L413.91 2.4M413.91 2.4L413.43 2.35M413.43 2.35L412.95 2.31M412.95 2.31L412.47 2.26M412.47 2.26L411.99 2.22M411.99 2.22L411.51 2.18M411.51 2.18L411.03 2.14M411.03 2.14L410.55 2.11M410.55 2.11L410.07 2.07M410.07 2.07L409.59 2.04M409.59 2.04L409.11 2M409.11 2L408.63 1.97M408.63 1.97L408.15 1.94M408.15 1.94L407.66 1.91M407.66 1.91L407.18 1.89M407.18 1.89L406.7 1.86M406.7 1.86L406.22 1.84M406.22 1.84L405.74 1.82M405.74 1.82L405.26 1.8M405.26 1.8L404.78 1.78M404.78 1.78L404.29 1.77M404.29 1.77L403.81 1.75M403.81 1.75L403.33 1.74M403.33 1.74L402.85 1.73M402.85 1.73L402.37 1.72M402.37 1.72L401.88 1.71M401.88 1.71L401.4 1.71M401.4 1.71L400.92 1.7M400.92 1.7L400.44 1.7M400.44 1.7L399.96 1.7M399.96 1.7L399.47 1.7M399.47 1.7L398.99 1.7M398.99 1.7L398.51 1.71M398.51 1.71L398.03 1.71M398.03 1.71L397.54 1.72M397.54 1.72L397.06 1.73M397.06 1.73L396.58 1.74M396.58 1.74L396.1 1.75M396.1 1.75L395.61 1.77M395.61 1.77L395.13 1.78M395.13 1.78L394.65 1.8M394.65 1.8L394.16 1.82M394.16 1.82L393.68 1.84M393.68 1.84L393.2 1.87M393.2 1.87L392.71 1.89M392.71 1.89L392.23 1.92M392.23 1.92L391.75 1.94M391.75 1.94L391.26 1.97M391.26 1.97L390.78 2M390.78 2L390.3 2.04M390.3 2.04L389.81 2.07M389.81 2.07L389.33 2.11M389.33 2.11L388.84 2.14M388.84 2.14L388.36 2.18M388.36 2.18L387.88 2.22M387.88 2.22L387.39 2.27M387.39 2.27L386.91 2.31M386.91 2.31L386.42 2.36M386.42 2.36L385.94 2.4M385.94 2.4L385.45 2.45M385.45 2.45L384.97 2.5M384.97 2.5L384.49 2.55M384.49 2.55L384 2.61M384 2.61L383.52 2.66M383.52 2.66L383.03 2.72M383.03 2.72L382.55 2.77M382.55 2.77L382.06 2.83M382.06 2.83L381.58 2.89M381.58 2.89L381.09 2.95M381.09 2.95L380.61 3.02M380.61 3.02L380.12 3.08M380.12 3.08L379.64 3.15M379.64 3.15L379.15 3.22M379.15 3.22L378.67 3.29M378.67 3.29L378.18 3.36M378.18 3.36L377.7 3.43M377.7 3.43L377.21 3.5M377.21 3.5L376.73 3.57M376.73 3.57L376.24 3.65M376.24 3.65L375.75 3.73M375.75 3.73L375.27 3.81M375.27 3.81L374.78 3.89M374.78 3.89L374.3 3.97M374.3 3.97L373.81 4.05M373.81 4.05L373.33 4.13M373.33 4.13L372.84 4.22M372.84 4.22L372.35 4.31M372.35 4.31L371.87 4.39M371.87 4.39L371.38 4.48M371.38 4.48L370.9 4.57M370.9 4.57L370.41 4.67M370.41 4.67L369.92 4.76M369.92 4.76L369.44 4.85M369.44 4.85L368.95 4.95"
     fill="none"
     stroke="black"
     stroke-width="0.5"
     id="path55" />
  <path
     d="M368.95 4.95L367.66 5.41M367.66 5.41L366.56 6.21M366.56 6.21L365.74 7.3M365.74 7.3L365.26 8.58"
     fill="none"
     stroke="black"
     stroke-width="0.5"
     id="path56" />
  <path
     d="M365.26 8.58L357.4 45.25"
     fill="none"
     stroke="black"
     stroke-width="0.5"
     id="path57" />
  <path
     d="M357.4 45.25L347.79 47.04M347.79 47.04L338.26 49.2M338.26 49.2L328.82 51.71M328.82 51.71L319.48 54.58M319.48 54.58L310.25 57.81M310.25 57.81L301.16 61.37M301.16 61.37L292.2 65.28M292.2 65.28L283.4 69.53M283.4 69.53L274.77 74.1M274.77 74.1L266.31 79M266.31 79L258.05 84.22M258.05 84.22L249.99 89.74"
     fill="none"
     stroke="black"
     stroke-width="0.5"
     id="path58" />
  <path
     d="M249.99 89.74L218.19 69.61"
     fill="none"
     stroke="black"
     stroke-width="0.5"
     id="path59" />
  <path
     d="M218.19 69.61L216.96 69.06M216.96 69.06L215.62 68.88M215.62 68.88L214.29 69.09M214.29 69.09L213.07 69.67"
     fill="none"
     stroke="black"
     stroke-width="0.5"
     id="path60" />
  <path
     d="M213.07 69.67L212.66 69.94M212.66 69.94L212.26 70.21M212.26 70.21L211.85 70.48M211.85 70.48L211.45 70.75M211.45 70.75L211.05 71.03M211.05 71.03L210.64 71.3M210.64 71.3L210.24 71.58M210.24 71.58L209.84 71.86M209.84 71.86L209.45 72.13M209.45 72.13L209.05 72.41M209.05 72.41L208.65 72.69M208.65 72.69L208.25 72.98M208.25 72.98L207.86 73.26M207.86 73.26L207.46 73.54M207.46 73.54L207.07 73.82M207.07 73.82L206.68 74.11M206.68 74.11L206.29 74.4M206.29 74.4L205.9 74.68M205.9 74.68L205.51 74.97M205.51 74.97L205.12 75.26M205.12 75.26L204.73 75.55M204.73 75.55L204.34 75.84M204.34 75.84L203.96 76.13M203.96 76.13L203.57 76.43M203.57 76.43L203.19 76.72M203.19 76.72L202.81 77.02M202.81 77.02L202.42 77.31M202.42 77.31L202.04 77.61M202.04 77.61L201.66 77.91M201.66 77.91L201.28 78.21M201.28 78.21L200.91 78.51M200.91 78.51L200.53 78.81M200.53 78.81L200.15 79.12M200.15 79.12L199.78 79.42M199.78 79.42L199.4 79.73M199.4 79.73L199.03 80.03M199.03 80.03L198.66 80.34M198.66 80.34L198.29 80.65M198.29 80.65L197.92 80.96M197.92 80.96L197.55 81.27M197.55 81.27L197.18 81.58M197.18 81.58L196.82 81.9M196.82 81.9L196.45 82.21M196.45 82.21L196.09 82.53M196.09 82.53L195.72 82.84M195.72 82.84L195.36 83.16M195.36 83.16L195 83.48M195 83.48L194.64 83.8M194.64 83.8L194.28 84.12M194.28 84.12L193.92 84.45M193.92 84.45L193.57 84.77M193.57 84.77L193.21 85.1M193.21 85.1L192.86 85.42M192.86 85.42L192.51 85.75M192.51 85.75L192.15 86.08M192.15 86.08L191.8 86.41M191.8 86.41L191.45 86.74M191.45 86.74L191.1 87.08M191.1 87.08L190.76 87.41M190.76 87.41L190.41 87.75M190.41 87.75L190.07 88.08M190.07 88.08L189.72 88.42M189.72 88.42L189.38 88.76M189.38 88.76L189.04 89.1M189.04 89.1L188.7 89.44M188.7 89.44L188.36 89.78M188.36 89.78L188.02 90.13M188.02 90.13L187.68 90.47M187.68 90.47L187.35 90.82M187.35 90.82L187.01 91.17M187.01 91.17L186.68 91.52M186.68 91.52L186.35 91.87M186.35 91.87L186.02 92.22M186.02 92.22L185.68 92.57M185.68 92.57L185.36 92.93M185.36 92.93L185.03 93.28M185.03 93.28L184.7 93.64M184.7 93.64L184.38 94M184.38 94L184.05 94.36M184.05 94.36L183.73 94.72M183.73 94.72L183.41 95.08M183.41 95.08L183.08 95.44M183.08 95.44L182.76 95.81M182.76 95.81L182.45 96.17M182.45 96.17L182.13 96.54M182.13 96.54L181.81 96.9M181.81 96.9L181.5 97.27M181.5 97.27L181.18 97.64M181.18 97.64L180.87 98.01M180.87 98.01L180.56 98.39M180.56 98.39L180.24 98.76M180.24 98.76L179.93 99.13M179.93 99.13L179.62 99.51M179.62 99.51L179.32 99.89M179.32 99.89L179.01 100.26M179.01 100.26L178.7 100.64M178.7 100.64L178.4 101.02M178.4 101.02L178.09 101.4M178.09 101.4L177.79 101.79M177.79 101.79L177.49 102.17M177.49 102.17L177.19 102.55M177.19 102.55L176.89 102.94M176.89 102.94L176.59 103.33M176.59 103.33L176.29 103.71M176.29 103.71L175.99 104.1M175.99 104.1L175.7 104.49M175.7 104.49L175.4 104.88M175.4 104.88L175.11 105.28M175.11 105.28L174.81 105.67M174.81 105.67L174.52 106.06M174.52 106.06L174.23 106.46M174.23 106.46L173.94 106.85M173.94 106.85L173.65 107.25M173.65 107.25L173.36 107.65M173.36 107.65L173.07 108.05M173.07 108.05L172.79 108.45M172.79 108.45L172.5 108.85M172.5 108.85L172.21 109.25M172.21 109.25L171.93 109.65M171.93 109.65L171.65 110.06M171.65 110.06L171.36 110.46M171.36 110.46L171.08 110.87M171.08 110.87L170.8 111.28M170.8 111.28L170.52 111.68M170.52 111.68L170.24 112.09M170.24 112.09L169.97 112.5M169.97 112.5L169.69 112.91M169.69 112.91L169.41 113.32"
     fill="none"
     stroke="black"
     stroke-width="0.5"
     id="path61" />
  <path
     d="M169.41 113.32L168.83 114.56M168.83 114.56L168.62 115.91M168.62 115.91L168.81 117.26M168.81 117.26L169.37 118.5"
     fill="none"
     stroke="black"
     stroke-width="0.5"
     id="path62" />
  <path
     d="M169.37 118.5L189.74 149.99"
     fill="none"
     stroke="black"
     stroke-width="0.5"
     id="path63" />
  <path
     d="M189.74 149.99L184.22 158.05M184.22 158.05L179 166.31M179 166.31L174.1 174.77M174.1 174.77L169.53 183.4M169.53 183.4L165.28 192.2M165.28 192.2L161.37 201.16M161.37 201.16L157.81 210.25M157.81 210.25L154.58 219.48M154.58 219.48L151.71 228.82M151.71 228.82L149.2 238.26M149.2 238.26L147.04 247.79M147.04 247.79L145.25 257.4"
     fill="none"
     stroke="black"
     stroke-width="0.5"
     id="path64" />
  <path
     d="M145.25 257.4L108.53 265.65"
     fill="none"
     stroke="black"
     stroke-width="0.5"
     id="path65" />
  <path
     d="M108.53 265.65L107.27 266.13M107.27 266.13L106.2 266.95M106.2 266.95L105.4 268.04M105.4 268.04L104.95 269.31"
     fill="none"
     stroke="black"
     stroke-width="0.5"
     id="path66" />
  <path
     d="M104.95 269.31L104.85 269.79M104.85 269.79L104.76 270.27M104.76 270.27L104.66 270.75M104.66 270.75L104.57 271.22M104.57 271.22L104.48 271.7M104.48 271.7L104.39 272.18M104.39 272.18L104.3 272.66M104.3 272.66L104.22 273.14M104.22 273.14L104.13 273.62M104.13 273.62L104.05 274.1M104.05 274.1L103.97 274.58M103.97 274.58L103.88 275.05M103.88 275.05L103.8 275.53M103.8 275.53L103.73 276.01M103.73 276.01L103.65 276.49M103.65 276.49L103.57 276.97M103.57 276.97L103.5 277.45M103.5 277.45L103.42 277.93M103.42 277.93L103.35 278.41M103.35 278.41L103.28 278.89M103.28 278.89L103.21 279.37M103.21 279.37L103.15 279.85M103.15 279.85L103.08 280.33M103.08 280.33L103.02 280.81M103.02 280.81L102.95 281.29M102.95 281.29L102.89 281.77M102.89 281.77L102.83 282.25M102.83 282.25L102.77 282.72M102.77 282.72L102.71 283.2M102.71 283.2L102.66 283.68M102.66 283.68L102.6 284.16M102.6 284.16L102.55 284.65M102.55 284.65L102.5 285.13M102.5 285.13L102.45 285.61M102.45 285.61L102.4 286.09M102.4 286.09L102.35 286.57M102.35 286.57L102.31 287.05M102.31 287.05L102.26 287.53M102.26 287.53L102.22 288.01M102.22 288.01L102.18 288.49M102.18 288.49L102.14 288.97M102.14 288.97L102.11 289.45M102.11 289.45L102.07 289.93M102.07 289.93L102.04 290.41M102.04 290.41L102 290.89M102 290.89L101.97 291.37M101.97 291.37L101.94 291.85M101.94 291.85L101.91 292.34M101.91 292.34L101.89 292.82M101.89 292.82L101.86 293.3M101.86 293.3L101.84 293.78M101.84 293.78L101.82 294.26M101.82 294.26L101.8 294.74M101.8 294.74L101.78 295.22M101.78 295.22L101.77 295.71M101.77 295.71L101.75 296.19M101.75 296.19L101.74 296.67M101.74 296.67L101.73 297.15M101.73 297.15L101.72 297.63M101.72 297.63L101.71 298.12M101.71 298.12L101.71 298.6M101.71 298.6L101.7 299.08M101.7 299.08L101.7 299.56M101.7 299.56L101.7 300.04M101.7 300.04L101.7 300.53M101.7 300.53L101.7 301.01M101.7 301.01L101.71 301.49M101.71 301.49L101.71 301.97M101.71 301.97L101.72 302.46M101.72 302.46L101.73 302.94M101.73 302.94L101.74 303.42M101.74 303.42L101.75 303.9M101.75 303.9L101.77 304.39M101.77 304.39L101.78 304.87M101.78 304.87L101.8 305.35M101.8 305.35L101.82 305.84M101.82 305.84L101.84 306.32M101.84 306.32L101.87 306.8M101.87 306.8L101.89 307.29M101.89 307.29L101.92 307.77M101.92 307.77L101.94 308.25M101.94 308.25L101.97 308.74M101.97 308.74L102 309.22M102 309.22L102.04 309.7M102.04 309.7L102.07 310.19M102.07 310.19L102.11 310.67M102.11 310.67L102.14 311.16M102.14 311.16L102.18 311.64M102.18 311.64L102.22 312.12M102.22 312.12L102.27 312.61M102.27 312.61L102.31 313.09M102.31 313.09L102.36 313.58M102.36 313.58L102.4 314.06M102.4 314.06L102.45 314.55M102.45 314.55L102.5 315.03M102.5 315.03L102.55 315.51M102.55 315.51L102.61 316M102.61 316L102.66 316.48M102.66 316.48L102.72 316.97M102.72 316.97L102.77 317.45M102.77 317.45L102.83 317.94M102.83 317.94L102.89 318.42M102.89 318.42L102.95 318.91M102.95 318.91L103.02 319.39M103.02 319.39L103.08 319.88M103.08 319.88L103.15 320.36M103.15 320.36L103.22 320.85M103.22 320.85L103.29 321.33M103.29 321.33L103.36 321.82M103.36 321.82L103.43 322.3M103.43 322.3L103.5 322.79M103.5 322.79L103.57 323.27M103.57 323.27L103.65 323.76M103.65 323.76L103.73 324.25M103.73 324.25L103.81 324.73M103.81 324.73L103.89 325.22M103.89 325.22L103.97 325.7M103.97 325.7L104.05 326.19M104.05 326.19L104.13 326.67M104.13 326.67L104.22 327.16M104.22 327.16L104.31 327.65M104.31 327.65L104.39 328.13M104.39 328.13L104.48 328.62M104.48 328.62L104.57 329.1M104.57 329.1L104.67 329.59M104.67 329.59L104.76 330.08M104.76 330.08L104.85 330.56M104.85 330.56L104.95 331.05"
     fill="none"
     stroke="black"
     stroke-width="0.5"
     id="path67" />
  <path
     d="M104.95 331.05L105.41 332.34M105.41 332.34L106.21 333.44M106.21 333.44L107.3 334.26M107.3 334.26L108.58 334.74"
     fill="none"
     stroke="black"
     stroke-width="0.5"
     id="path68" />
  <path
     d="M108.58 334.74L145.25 342.6"
     fill="none"
     stroke="black"
     stroke-width="0.5"
     id="path69" />
  <path
     d="M145.25 342.6L147.1 352.46M147.1 352.46L149.32 362.24M149.32 362.24L151.93 371.93M151.93 371.93L154.91 381.5M154.91 381.5L158.26 390.96M158.26 390.96L161.97 400.27M161.97 400.27L166.04 409.44"
     fill="none"
     stroke="black"
     stroke-width="0.5"
     id="path70" />
  <path
     d="M206.98 393.85L201.51 394.66M201.51 394.66L196.1 395.81M196.1 395.81L190.77 397.29M190.77 397.29L185.54 399.1M185.54 399.1L180.44 401.22M180.44 401.22L175.47 403.66M175.47 403.66L170.67 406.4M170.67 406.4L166.04 409.44"
     fill="none"
     stroke="black"
     stroke-width="0.5"
     id="path71" />
  <path
     d="M493.85 106.98L485.52 103.15M485.52 103.15L477.04 99.68M477.04 99.68L468.43 96.58M468.43 96.58L459.68 93.84M459.68 93.84L450.83 91.48M450.83 91.48L441.89 89.5M441.89 89.5L432.86 87.91M432.86 87.91L423.78 86.7M423.78 86.7L414.66 85.88M414.66 85.88L405.51 85.45M405.51 85.45L396.35 85.41M396.35 85.41L387.19 85.76M387.19 85.76L378.06 86.5M378.06 86.5L368.97 87.63M368.97 87.63L359.94 89.15M359.94 89.15L350.98 91.05M350.98 91.05L342.1 93.33M342.1 93.33L333.34 95.99M333.34 95.99L324.69 99.02M324.69 99.02L316.18 102.42M316.18 102.42L307.83 106.18M307.83 106.18L299.64 110.29M299.64 110.29L291.64 114.74M291.64 114.74L283.83 119.54M283.83 119.54L276.23 124.66M276.23 124.66L268.86 130.1M268.86 130.1L261.73 135.85M261.73 135.85L254.85 141.9M254.85 141.9L248.24 148.24M248.24 148.24L241.9 154.85M241.9 154.85L235.85 161.73M235.85 161.73L230.1 168.86M230.1 168.86L224.66 176.23M224.66 176.23L219.54 183.83M219.54 183.83L214.74 191.64M214.74 191.64L210.29 199.64M210.29 199.64L206.18 207.83M206.18 207.83L202.42 216.18M202.42 216.18L199.02 224.69M199.02 224.69L195.99 233.34M195.99 233.34L193.33 242.1M193.33 242.1L191.05 250.98M191.05 250.98L189.15 259.94M189.15 259.94L187.63 268.97M187.63 268.97L186.5 278.06M186.5 278.06L185.76 287.19M185.76 287.19L185.41 296.35M185.41 296.35L185.45 305.51M185.45 305.51L185.88 314.66M185.88 314.66L186.7 323.78M186.7 323.78L187.91 332.86M187.91 332.86L189.5 341.89M189.5 341.89L191.48 350.83M191.48 350.83L193.84 359.68M193.84 359.68L196.58 368.43M196.58 368.43L199.68 377.04M199.68 377.04L203.15 385.52M203.15 385.52L206.98 393.85"
     fill="none"
     stroke="black"
     stroke-width="0.5"
     id="path72"
     style="fill:#000000;fill-opacity:1" />
  <path
     d="M509.44 66.04L506.4 70.67M506.4 70.67L503.66 75.47M503.66 75.47L501.22 80.44M501.22 80.44L499.1 85.54M499.1 85.54L497.29 90.77M497.29 90.77L495.81 96.1M495.81 96.1L494.66 101.51M494.66 101.51L493.85 106.98"
     fill="none"
     stroke="black"
     stroke-width="0.5"
     id="path73" />
  <path
     d="M439.54 190.59L491.38 138.75"
     fill="none"
     stroke="black"
     stroke-width="0.5"
     id="path74" />
  <path
     d="M491.38 138.75L483.92 134.75M483.92 134.75L476.29 131.09M476.29 131.09L468.51 127.79M468.51 127.79L460.58 124.84M460.58 124.84L452.52 122.26M452.52 122.26L444.36 120.05M444.36 120.05L436.1 118.21M436.1 118.21L427.77 116.75M427.77 116.75L419.37 115.68M419.37 115.68L410.94 114.98M410.94 114.98L402.49 114.68M402.49 114.68L394.03 114.76M394.03 114.76L385.58 115.22M385.58 115.22L377.17 116.07M377.17 116.07L368.8 117.31M368.8 117.31L360.49 118.92M360.49 118.92L352.27 120.91M352.27 120.91L344.15 123.28M344.15 123.28L336.14 126.01M336.14 126.01L328.27 129.1M328.27 129.1L320.55 132.56M320.55 132.56L312.99 136.36M312.99 136.36L305.61 140.5M305.61 140.5L298.43 144.97M298.43 144.97L291.46 149.77M291.46 149.77L284.72 154.87M284.72 154.87L278.22 160.29M278.22 160.29L271.97 165.99M271.97 165.99L265.99 171.97M265.99 171.97L260.29 178.22M260.29 178.22L254.87 184.72M254.87 184.72L249.77 191.46M249.77 191.46L244.97 198.43M244.97 198.43L240.5 205.61M240.5 205.61L236.36 212.99M236.36 212.99L232.56 220.55M232.56 220.55L229.1 228.27M229.1 228.27L226.01 236.14M226.01 236.14L223.28 244.15M223.28 244.15L220.91 252.27M220.91 252.27L218.92 260.49M218.92 260.49L217.31 268.8M217.31 268.8L216.07 277.17M216.07 277.17L215.22 285.58M215.22 285.58L214.76 294.03M214.76 294.03L214.68 302.49M214.68 302.49L214.98 310.94M214.98 310.94L215.68 319.37M215.68 319.37L216.75 327.77M216.75 327.77L218.21 336.1M218.21 336.1L220.05 344.36M220.05 344.36L222.26 352.52M222.26 352.52L224.84 360.58M224.84 360.58L227.79 368.51M227.79 368.51L231.09 376.29M231.09 376.29L234.75 383.92M234.75 383.92L238.75 391.38"
     fill="none"
     stroke="black"
     stroke-width="0.5"
     id="path75" />
  <path
     d="M238.75 391.38L290.59 339.54"
     fill="none"
     stroke="black"
     stroke-width="0.5"
     id="path76" />
  <path
     d="M285.02 317.7L286.01 323.26M286.01 323.26L287.27 328.76M287.27 328.76L288.8 334.19M288.8 334.19L290.59 339.54"
     fill="none"
     stroke="black"
     stroke-width="0.5"
     id="path77" />
  <path
     d="M285.02 317.7L262.71 317.47"
     fill="none"
     stroke="black"
     stroke-width="0.5"
     id="path78" />
  <path
     d="M260.39 315.4L260.65 316.21M260.65 316.21L261.16 316.87M261.16 316.87L261.88 317.31M261.88 317.31L262.71 317.47"
     fill="none"
     stroke="black"
     stroke-width="0.5"
     id="path79" />
  <path
     d="M260.39 315.4L260.34 314.92M260.34 314.92L260.28 314.43M260.28 314.43L260.22 313.95M260.22 313.95L260.17 313.46M260.17 313.46L260.12 312.98M260.12 312.98L260.07 312.49M260.07 312.49L260.02 312.01M260.02 312.01L259.97 311.53M259.97 311.53L259.93 311.05M259.93 311.05L259.88 310.56M259.88 310.56L259.84 310.08M259.84 310.08L259.8 309.6M259.8 309.6L259.77 309.12M259.77 309.12L259.73 308.64M259.73 308.64L259.69 308.16M259.69 308.16L259.66 307.68M259.66 307.68L259.63 307.21M259.63 307.21L259.6 306.73M259.6 306.73L259.58 306.25M259.58 306.25L259.55 305.78M259.55 305.78L259.53 305.3M259.53 305.3L259.51 304.82M259.51 304.82L259.49 304.35M259.49 304.35L259.47 303.88M259.47 303.88L259.46 303.4M259.46 303.4L259.45 302.93M259.45 302.93L259.44 302.46M259.44 302.46L259.43 301.99M259.43 301.99L259.42 301.51M259.42 301.51L259.42 301.04M259.42 301.04L259.42 300.57M259.42 300.57L259.42 300.11M259.42 300.11L259.42 299.64M259.42 299.64L259.42 299.17M259.42 299.17L259.43 298.7M259.43 298.7L259.44 298.23M259.44 298.23L259.45 297.77M259.45 297.77L259.46 297.3M259.46 297.3L259.48 296.84M259.48 296.84L259.5 296.37M259.5 296.37L259.52 295.91M259.52 295.91L259.54 295.45M259.54 295.45L259.56 294.98M259.56 294.98L259.59 294.52M259.59 294.52L259.62 294.06M259.62 294.06L259.65 293.6M259.65 293.6L259.68 293.14M259.68 293.14L259.71 292.68M259.71 292.68L259.75 292.22M259.75 292.22L259.78 291.76M259.78 291.76L259.82 291.3M259.82 291.3L259.86 290.85M259.86 290.85L259.91 290.39M259.91 290.39L259.95 289.93M259.95 289.93L260 289.48M260 289.48L260.05 289.02M260.05 289.02L260.1 288.57M260.1 288.57L260.15 288.11M260.15 288.11L260.2 287.66M260.2 287.66L260.26 287.2M260.26 287.2L260.31 286.75M260.31 286.75L260.37 286.3M260.37 286.3L260.43 285.85M260.43 285.85L260.49 285.4"
     fill="none"
     stroke="black"
     stroke-width="0.5"
     id="path80" />
  <path
     d="M262.71 283.37L261.92 283.55M261.92 283.55L261.24 283.98M261.24 283.98L260.74 284.62M260.74 284.62L260.49 285.4"
     fill="none"
     stroke="black"
     stroke-width="0.5"
     id="path81" />
  <path
     d="M262.71 283.37L285.02 282.3"
     fill="none"
     stroke="black"
     stroke-width="0.5"
     id="path82" />
  <path
     d="M306.18 231.21L302.64 236.31M302.64 236.31L299.39 241.59M299.39 241.59L296.42 247.04M296.42 247.04L293.74 252.63M293.74 252.63L291.37 258.36M291.37 258.36L289.3 264.21M289.3 264.21L287.55 270.16M287.55 270.16L286.12 276.19M286.12 276.19L285.02 282.3"
     fill="none"
     stroke="black"
     stroke-width="0.5"
     id="path83" />
  <path
     d="M306.18 231.21L290.56 215.28"
     fill="none"
     stroke="black"
     stroke-width="0.5"
     id="path84" />
  <path
     d="M290.39 212.18L290 212.92M290 212.92L289.9 213.76M289.9 213.76L290.09 214.58M290.09 214.58L290.56 215.28"
     fill="none"
     stroke="black"
     stroke-width="0.5"
     id="path85" />
  <path
     d="M290.39 212.18L290.69 211.79M290.69 211.79L291 211.41M291 211.41L291.3 211.03M291.3 211.03L291.61 210.64M291.61 210.64L291.91 210.27M291.91 210.27L292.22 209.89M292.22 209.89L292.53 209.51M292.53 209.51L292.83 209.14M292.83 209.14L293.14 208.76M293.14 208.76L293.45 208.39M293.45 208.39L293.76 208.02M293.76 208.02L294.08 207.66M294.08 207.66L294.39 207.29M294.39 207.29L294.7 206.92M294.7 206.92L295.02 206.56M295.02 206.56L295.33 206.2M295.33 206.2L295.65 205.84M295.65 205.84L295.97 205.48M295.97 205.48L296.28 205.13M296.28 205.13L296.6 204.77M296.6 204.77L296.92 204.42M296.92 204.42L297.25 204.07M297.25 204.07L297.57 203.72M297.57 203.72L297.89 203.37M297.89 203.37L298.22 203.03M298.22 203.03L298.54 202.69M298.54 202.69L298.87 202.34M298.87 202.34L299.2 202.01M299.2 202.01L299.53 201.67M299.53 201.67L299.86 201.33M299.86 201.33L300.19 201M300.19 201L300.52 200.67M300.52 200.67L300.85 200.34M300.85 200.34L301.19 200.01M301.19 200.01L301.52 199.68M301.52 199.68L301.86 199.36M301.86 199.36L302.2 199.04M302.2 199.04L302.53 198.72M302.53 198.72L302.87 198.4M302.87 198.4L303.21 198.09M303.21 198.09L303.56 197.77M303.56 197.77L303.9 197.46M303.9 197.46L304.24 197.15M304.24 197.15L304.59 196.84M304.59 196.84L304.93 196.53M304.93 196.53L305.28 196.23M305.28 196.23L305.63 195.93M305.63 195.93L305.98 195.62M305.98 195.62L306.33 195.33M306.33 195.33L306.68 195.03M306.68 195.03L307.03 194.73M307.03 194.73L307.38 194.44M307.38 194.44L307.73 194.14M307.73 194.14L308.09 193.85M308.09 193.85L308.44 193.56M308.44 193.56L308.8 193.27M308.8 193.27L309.16 192.99M309.16 192.99L309.52 192.7M309.52 192.7L309.87 192.42M309.87 192.42L310.23 192.14M310.23 192.14L310.6 191.86M310.6 191.86L310.96 191.58M310.96 191.58L311.32 191.3M311.32 191.3L311.68 191.03"
     fill="none"
     stroke="black"
     stroke-width="0.5"
     id="path86" />
  <path
     d="M314.69 191.16L314 190.73M314 190.73L313.21 190.55M313.21 190.55L312.4 190.66M312.4 190.66L311.68 191.03"
     fill="none"
     stroke="black"
     stroke-width="0.5"
     id="path87" />
  <path
     d="M314.69 191.16L331.21 206.18"
     fill="none"
     stroke="black"
     stroke-width="0.5"
     id="path88" />
  <path
     d="M382.3 185.02L376.19 186.12M376.19 186.12L370.16 187.55M370.16 187.55L364.21 189.3M364.21 189.3L358.36 191.37M358.36 191.37L352.63 193.74M352.63 193.74L347.04 196.42M347.04 196.42L341.59 199.39M341.59 199.39L336.31 202.64M336.31 202.64L331.21 206.18"
     fill="none"
     stroke="black"
     stroke-width="0.5"
     id="path89" />
  <path
     d="M382.3 185.02L382.53 162.71"
     fill="none"
     stroke="black"
     stroke-width="0.5"
     id="path90" />
  <path
     d="M384.6 160.39L383.79 160.65M383.79 160.65L383.13 161.16M383.13 161.16L382.69 161.88M382.69 161.88L382.53 162.71"
     fill="none"
     stroke="black"
     stroke-width="0.5"
     id="path91" />
  <path
     d="M384.6 160.39L385.08 160.34M385.08 160.34L385.57 160.28M385.57 160.28L386.05 160.22M386.05 160.22L386.54 160.17M386.54 160.17L387.02 160.12M387.02 160.12L387.51 160.07M387.51 160.07L387.99 160.02M387.99 160.02L388.47 159.97M388.47 159.97L388.95 159.93M388.95 159.93L389.44 159.88M389.44 159.88L389.92 159.84M389.92 159.84L390.4 159.8M390.4 159.8L390.88 159.77M390.88 159.77L391.36 159.73M391.36 159.73L391.84 159.69M391.84 159.69L392.32 159.66M392.32 159.66L392.79 159.63M392.79 159.63L393.27 159.6M393.27 159.6L393.75 159.58M393.75 159.58L394.22 159.55M394.22 159.55L394.7 159.53M394.7 159.53L395.18 159.51M395.18 159.51L395.65 159.49M395.65 159.49L396.12 159.47M396.12 159.47L396.6 159.46M396.6 159.46L397.07 159.45M397.07 159.45L397.54 159.44M397.54 159.44L398.01 159.43M398.01 159.43L398.49 159.42M398.49 159.42L398.96 159.42M398.96 159.42L399.43 159.42M399.43 159.42L399.89 159.42M399.89 159.42L400.36 159.42M400.36 159.42L400.83 159.42M400.83 159.42L401.3 159.43M401.3 159.43L401.77 159.44M401.77 159.44L402.23 159.45M402.23 159.45L402.7 159.46M402.7 159.46L403.16 159.48M403.16 159.48L403.63 159.5M403.63 159.5L404.09 159.52M404.09 159.52L404.55 159.54M404.55 159.54L405.02 159.56M405.02 159.56L405.48 159.59M405.48 159.59L405.94 159.62M405.94 159.62L406.4 159.65M406.4 159.65L406.86 159.68M406.86 159.68L407.32 159.71M407.32 159.71L407.78 159.75M407.78 159.75L408.24 159.78M408.24 159.78L408.7 159.82M408.7 159.82L409.15 159.86M409.15 159.86L409.61 159.91M409.61 159.91L410.07 159.95M410.07 159.95L410.52 160M410.52 160L410.98 160.05M410.98 160.05L411.43 160.1M411.43 160.1L411.89 160.15M411.89 160.15L412.34 160.2M412.34 160.2L412.8 160.26M412.8 160.26L413.25 160.31M413.25 160.31L413.7 160.37M413.7 160.37L414.15 160.43M414.15 160.43L414.6 160.49"
     fill="none"
     stroke="black"
     stroke-width="0.5"
     id="path92" />
  <path
     d="M416.63 162.71L416.45 161.92M416.45 161.92L416.02 161.24M416.02 161.24L415.38 160.74M415.38 160.74L414.6 160.49"
     fill="none"
     stroke="black"
     stroke-width="0.5"
     id="path93" />
  <path
     d="M416.63 162.71L417.7 185.02"
     fill="none"
     stroke="black"
     stroke-width="0.5"
     id="path94" />
  <path
     d="M439.54 190.59L434.19 188.8M434.19 188.8L428.76 187.27M428.76 187.27L423.26 186.01M423.26 186.01L417.7 185.02"
     fill="none"
     stroke="black"
     stroke-width="0.5"
     id="path95" />
  <path
     d="m 418.64,211.48 -5.89,-1.04 m 0,0 -5.95,-0.64 m 0,0 -5.99,-0.26 m 0,0 -5.98,0.15 m 0,0 -5.96,0.54 m 0,0 -5.92,0.93 m 0,0 -5.84,1.32 m 0,0 -5.74,1.71 m 0,0 -5.61,2.08 m 0,0 -5.47,2.45 m 0,0 -5.28,2.8 m 0,0 -5.1,3.15 m 0,0 -4.87,3.48 m 0,0 -4.63,3.79 m 0,0 -4.37,4.1 m 0,0 -4.1,4.37 m 0,0 -3.79,4.63 m 0,0 -3.48,4.87 m 0,0 -3.15,5.1 m 0,0 -2.8,5.28 m 0,0 -2.45,5.47 m 0,0 -2.08,5.61 m 0,0 -1.71,5.74 m 0,0 -1.32,5.84 m 0,0 -0.93,5.92 m 0,0 -0.54,5.96 m 0,0 -0.15,5.98 m 0,0 0.26,5.99 m 0,0 0.64,5.95 m 0,0 1.04,5.89 m 0,0 107.16,-107.16"
     fill="none"
     stroke="#000000"
     stroke-width="0.5"
     id="path96"
     style="display:none" />
  <path
     d="m 591.68,72.88 -27.62,27.63"
     fill="none"
     stroke="#000000"
     stroke-width="0.5"
     id="path97"
     style="display:none" />
  <path
     d="m 599.49,135.94 -6.52,-7.62 m 0,0 -6.82,-7.37 m 0,0 -7.1,-7.1 m 0,0 -7.37,-6.82 m 0,0 -7.62,-6.52"
     fill="none"
     stroke="#000000"
     stroke-width="0.5"
     id="path98"
     style="display:none" />
  <path
     d="m 599.49,135.94 27.6,-27.59"
     fill="none"
     stroke="#000000"
     stroke-width="0.5"
     id="path99"
     style="display:none" />
  <path
     d="m 627.09,108.35 -0.23,-0.32 m 0,0 -0.23,-0.32 m 0,0 -0.23,-0.32 m 0,0 -0.23,-0.32 m 0,0 -0.23,-0.32 m 0,0 -0.23,-0.32 m 0,0 -0.23,-0.32 m 0,0 -0.24,-0.31 m 0,0 -0.23,-0.32 m 0,0 -0.24,-0.32 m 0,0 -0.23,-0.31 m 0,0 -0.24,-0.32 m 0,0 -0.23,-0.31 m 0,0 -0.24,-0.31 m 0,0 -0.24,-0.31 m 0,0 -0.24,-0.32 m 0,0 -0.24,-0.31 m 0,0 -0.24,-0.31 m 0,0 -0.24,-0.31 m 0,0 -0.24,-0.31 m 0,0 -0.24,-0.31 m 0,0 -0.25,-0.3 m 0,0 -0.24,-0.31 m 0,0 -0.25,-0.31 m 0,0 -0.24,-0.3 m 0,0 -0.25,-0.31 m 0,0 -0.24,-0.3 m 0,0 -0.25,-0.31 m 0,0 -0.25,-0.3 m 0,0 -0.25,-0.3 m 0,0 -0.25,-0.3 m 0,0 -0.25,-0.3 m 0,0 -0.25,-0.31 m 0,0 -0.25,-0.29 m 0,0 -0.26,-0.3 m 0,0 -0.25,-0.3 m 0,0 -0.25,-0.3 m 0,0 -0.26,-0.3 m 0,0 -0.25,-0.29 m 0,0 -0.26,-0.3 m 0,0 -0.26,-0.29 m 0,0 -0.26,-0.3 m 0,0 -0.26,-0.29 m 0,0 -0.26,-0.29 m 0,0 -0.26,-0.29 m 0,0 -0.26,-0.3 m 0,0 -0.26,-0.29 m 0,0 -0.26,-0.29 m 0,0 -0.27,-0.28 m 0,0 -0.26,-0.29 m 0,0 -0.27,-0.29 m 0,0 -0.26,-0.29 m 0,0 -0.27,-0.28 m 0,0 -0.27,-0.29 m 0,0 -0.27,-0.28 m 0,0 -0.27,-0.29 m 0,0 -0.27,-0.28 m 0,0 -0.27,-0.28 m 0,0 -0.27,-0.28 m 0,0 -0.27,-0.28 m 0,0 -0.28,-0.28 m 0,0 -0.27,-0.28 m 0,0 -0.28,-0.28 m 0,0 -0.27,-0.28 m 0,0 -0.28,-0.27 m 0,0 -0.28,-0.28 m 0,0 -0.28,-0.27 m 0,0 -0.28,-0.28 m 0,0 -0.28,-0.27 m 0,0 -0.28,-0.28 m 0,0 -0.28,-0.27 m 0,0 -0.28,-0.27 m 0,0 -0.29,-0.27 m 0,0 -0.28,-0.27 m 0,0 -0.29,-0.27 m 0,0 -0.28,-0.27 m 0,0 -0.29,-0.26 m 0,0 -0.29,-0.27 m 0,0 -0.29,-0.27 m 0,0 -0.29,-0.26 m 0,0 -0.29,-0.27 m 0,0 -0.29,-0.26 m 0,0 -0.29,-0.26 m 0,0 -0.29,-0.27 m 0,0 -0.29,-0.26 m 0,0 -0.3,-0.26 m 0,0 -0.29,-0.26 m 0,0 -0.3,-0.26 m 0,0 -0.3,-0.26 m 0,0 -0.29,-0.26 m 0,0 -0.3,-0.25 m 0,0 -0.3,-0.26 m 0,0 -0.3,-0.26 m 0,0 -0.3,-0.25 m 0,0 -0.3,-0.26 m 0,0 -0.3,-0.25 m 0,0 -0.31,-0.25 m 0,0 -0.3,-0.26 m 0,0 -0.3,-0.25 m 0,0 -0.31,-0.25 m 0,0 -0.3,-0.25 m 0,0 -0.31,-0.25 m 0,0 -0.31,-0.25 m 0,0 -0.31,-0.25 m 0,0 -0.3,-0.24 m 0,0 -0.31,-0.25 m 0,0 -0.31,-0.25 m 0,0 -0.32,-0.24 m 0,0 -0.31,-0.25 m 0,0 -0.31,-0.24 m 0,0 -0.31,-0.25 m 0,0 -0.32,-0.24 m 0,0 -0.31,-0.24 m 0,0 -0.31,-0.24 m 0,0 -0.32,-0.24 m 0,0 -0.32,-0.24 m 0,0 -0.31,-0.24 m 0,0 -0.32,-0.24 m 0,0 -0.32,-0.24 m 0,0 -0.32,-0.24 m 0,0 -0.32,-0.24 m 0,0 -0.32,-0.23 m 0,0 -0.32,-0.24 m 0,0 -0.32,-0.24 m 0,0 -0.33,-0.23 m 0,0 -0.32,-0.24 m 0,0 -0.32,-0.23 m 0,0 -0.33,-0.23"
     fill="none"
     stroke="#000000"
     stroke-width="0.5"
     id="path100"
     style="display:none" />
  <path
     inkscape:original-d="M 0,0"
     inkscape:path-effect="#path-effect112"
     d="m 580.12695,40.875 c -5.32573,-0.01024 -10.62122,0.797546 -15.76952,2.128788 -11.49886,2.926055 -22.41239,8.364793 -31.44072,16.092232 -6.60418,5.828029 -12.20939,12.759773 -16.74367,20.300402 -5.66666,9.708439 -8.93823,20.748398 -9.89887,31.927938 -0.61736,7.41782 -0.1067,14.91596 1.39966,22.20103 0.27051,0.54379 -0.14357,0.85707 -0.52703,1.19889 -91.01052,91.00988 -182.02104,182.01975 -273.03157,273.02963 -4.45267,-0.89121 -8.97279,-1.44776 -13.51578,-1.5266 -7.14345,-0.21735 -14.38522,0.0835 -21.31636,1.96412 -7.01012,1.82389 -13.78429,4.56566 -20.11254,8.08687 -8.7445,4.98621 -16.4096,11.81533 -22.55466,19.77541 -7.11027,9.28334 -11.97164,20.20749 -14.45915,31.61585 -1.3386,5.70295 -0.96639,11.59569 -1.05713,17.40271 0.0472,2.93249 0.0127,5.8838 0.40039,8.79492 0.27642,1.93182 1.65716,3.86267 3.70333,4.10397 2.28225,0.34509 4.17776,-1.30214 5.74313,-2.73361 5.2803,-4.75502 10.23059,-9.85972 15.29171,-14.84344 7.93433,-7.90626 15.84751,-15.83577 23.7716,-23.75349 10.29166,0 20.58333,10e-6 30.875,0 7.51953,7.51433 15.03906,15.02865 22.55859,22.54297 0,10.29688 0,20.59375 0,30.89063 -12.85889,12.93017 -25.90054,25.6827 -38.47275,38.89507 -1.00154,1.19334 -2.25656,2.25305 -2.87491,3.7104 -0.28812,1.03529 -0.34902,2.11787 -0.63672,3.15625 1.58359,1.25824 3.32858,2.45703 5.39005,2.70657 3.92441,0.74389 7.94472,0.50304 11.91459,0.44345 4.53412,-0.15564 9.10027,-0.30611 13.56616,-1.15752 9.87495,-2.20399 19.3849,-6.1492 27.8365,-11.72218 8.18872,-5.53313 15.03974,-12.86897 20.73003,-20.90712 3.48188,-4.93569 6.34189,-10.32618 8.24125,-16.06903 2.18439,-6.08601 3.92261,-12.38107 4.43789,-18.84885 0.77164,-8.06608 0.48971,-16.28325 -1.37037,-24.18946 91.2845,-91.28386 182.56901,-182.56771 273.85351,-273.85157 10.76032,2.19044 21.99215,2.47336 32.74135,0.0614 9.88951,-2.18454 19.27158,-6.4329 27.65756,-12.08017 4.71086,-3.38171 8.80414,-7.53252 12.79932,-11.71261 3.40789,-3.57903 6.56128,-7.43215 9.01756,-11.73469 5.46327,-9.15749 9.14121,-19.42172 10.34764,-30.03505 0.80141,-6.74932 0.82615,-13.61402 -0.14848,-20.34588 -0.28259,-1.71096 -1.07963,-3.3991 -2.43838,-4.50256 -1.11847,-0.6804 -2.44397,-0.19505 -3.57032,0.1836 -1.4965,0.70634 -2.54684,2.05169 -3.77832,3.11562 -12.27383,11.72793 -24.1493,23.86092 -36.18714,35.8291 -0.78039,0.78015 -1.56079,1.56029 -2.34118,2.34044 -10.4694,-1e-5 -20.9388,0 -31.4082,0 -7.50977,-7.53126 -15.01953,-15.0625 -22.5293,-22.59376 0,-10.11523 0,-20.23046 0,-30.345698 12.16871,-12.210745 24.44592,-24.310938 36.48899,-36.644954 1.71526,-1.793337 3.49318,-3.580677 4.80789,-5.696843 1.10338,-2.012722 0.45652,-4.915759 -1.69727,-5.933594 -2.03709,-1.000708 -4.37637,-0.898413 -6.58255,-1.109715 -3.03374,-0.170658 -6.07297,-0.191566 -9.11081,-0.159816 z"
     id="path113"
     style="display:inline;fill:#555555;fill-opacity:1;stroke:#080808;stroke-width:3;stroke-dasharray:none;stroke-opacity:1" />
  <path
     id="path101"
     style="opacity:1;fill:#696969;fill-opacity:1;fill-rule:nonzero;stroke:#080808;stroke-width:3;stroke-linecap:round;stroke-linejoin:miter;stroke-miterlimit:16.2;stroke-dasharray:none;paint-order:normal;stroke-opacity:1"
     d="m 580.12695,40.875 c -5.32573,-0.01024 -10.62122,0.797546 -15.76952,2.128788 -11.49886,2.926055 -22.41239,8.364793 -31.44072,16.092232 -6.60418,5.828029 -12.20939,12.759773 -16.74367,20.300402 -5.66666,9.708439 -8.93823,20.748398 -9.89887,31.927938 -0.61736,7.41782 -0.1067,14.91596 1.39966,22.20103 0.27051,0.54379 -0.14357,0.85707 -0.52703,1.19889 -91.01052,91.00988 -182.02104,182.01975 -273.03157,273.02963 -4.45267,-0.89121 -8.97279,-1.44776 -13.51578,-1.5266 -7.14345,-0.21735 -14.38522,0.0835 -21.31636,1.96412 -7.01012,1.82389 -13.78429,4.56566 -20.11254,8.08687 -8.7445,4.98621 -16.4096,11.81533 -22.55466,19.77541 -7.11027,9.28334 -11.97164,20.20749 -14.45915,31.61585 -1.3386,5.70295 -0.96639,11.59569 -1.05713,17.40271 0.0472,2.93249 0.0127,5.8838 0.40039,8.79492 0.27642,1.93182 1.65716,3.86267 3.70333,4.10397 2.28225,0.34509 4.17776,-1.30214 5.74313,-2.73361 5.2803,-4.75502 10.23059,-9.85972 15.29171,-14.84344 7.93433,-7.90626 15.84751,-15.83577 23.7716,-23.75349 10.29166,0 20.58333,10e-6 30.875,0 7.51953,7.51433 15.03906,15.02865 22.55859,22.54297 0,10.29688 0,20.59375 0,30.89063 -12.85889,12.93017 -25.90054,25.6827 -38.47275,38.89507 -1.00154,1.19334 -2.25656,2.25305 -2.87491,3.7104 -0.28812,1.03529 -0.34902,2.11787 -0.63672,3.15625 1.58359,1.25824 3.32858,2.45703 5.39005,2.70657 3.92441,0.74389 7.94472,0.50304 11.91459,0.44345 4.53412,-0.15564 9.10027,-0.30611 13.56616,-1.15752 9.87495,-2.20399 19.3849,-6.1492 27.8365,-11.72218 8.18872,-5.53313 15.03974,-12.86897 20.73003,-20.90712 3.48188,-4.93569 6.34189,-10.32618 8.24125,-16.06903 2.18439,-6.08601 3.92261,-12.38107 4.43789,-18.84885 0.77164,-8.06608 0.48971,-16.28325 -1.37037,-24.18946 91.2845,-91.28386 182.56901,-182.56771 273.85351,-273.85157 10.76032,2.19044 21.99215,2.47336 32.74135,0.0614 9.88951,-2.18454 19.27158,-6.4329 27.65756,-12.08017 4.71086,-3.38171 8.80414,-7.53252 12.79932,-11.71261 3.40789,-3.57903 6.56128,-7.43215 9.01756,-11.73469 5.46327,-9.15749 9.14121,-19.42172 10.34764,-30.03505 0.80141,-6.74932 0.82615,-13.61402 -0.14848,-20.34588 -0.28259,-1.71096 -1.07963,-3.3991 -2.43838,-4.50256 -1.11847,-0.6804 -2.44397,-0.19505 -3.57032,0.1836 -1.4965,0.70634 -2.54684,2.05169 -3.77832,3.11562 -12.27383,11.72793 -24.1493,23.86092 -36.18714,35.8291 -0.78039,0.78015 -1.56079,1.56029 -2.34118,2.34044 -10.4694,-10e-6 -20.9388,0 -31.4082,0 -7.50977,-7.53126 -15.01953,-15.0625 -22.5293,-22.59376 0,-10.11523 0,-20.23046 0,-30.345698 12.16871,-12.210745 24.44592,-24.310938 36.48899,-36.644954 1.71526,-1.793337 3.49318,-3.580677 4.80789,-5.696843 1.10338,-2.012722 0.45652,-4.915759 -1.69727,-5.933594 -2.03709,-1.000708 -4.37637,-0.898413 -6.58255,-1.109715 -3.03374,-0.170658 -6.07297,-0.191566 -9.11081,-0.159816 z m -52.14843,129.93164 c 1.61281,1.60237 3.21749,3.2139 4.76171,4.88281 -10.58151,11.19548 -21.53432,22.06064 -32.34922,33.00893 -51.91111,52.15735 -103.98797,104.14935 -156.03385,156.17213 -22.75099,22.73952 -45.52042,45.45923 -68.322,68.14707 -3.06573,-2.98336 -6.07699,-6.02196 -9.10157,-9.04688 85.69011,-85.6901 171.38021,-171.38021 257.07032,-257.07031 1.32487,1.30208 2.64974,2.60417 3.97461,3.90625 z" />
  <path
     style="opacity:1;fill:#000000;fill-opacity:1;fill-rule:nonzero;stroke:#000000;stroke-width:0;stroke-linecap:butt;stroke-linejoin:bevel;stroke-miterlimit:100.2;stroke-dasharray:none;stroke-dashoffset:0;paint-order:normal"
     d=""
     id="path102" />
  <path
     id="path103"
     style="opacity:1;fill:#cbcbcb;fill-opacity:1;fill-rule:nonzero;stroke:#080808;stroke-width:3;stroke-linecap:butt;stroke-linejoin:bevel;stroke-miterlimit:100.2;stroke-dasharray:none;stroke-dashoffset:0;paint-order:normal;stroke-opacity:1"
     d="m 397.75586,0.19140625 c -9.43895,0.16813957 -18.84734,1.28887775 -28.1133,3.06636265 -1.63524,0.282238 -3.40163,0.8074653 -4.34764,2.2891061 -1.42331,2.2252343 -1.84741,4.898748 -2.49974,7.415661 -2.30721,10.288806 -4.36633,20.604624 -6.75416,30.881214 -3.18073,0.777578 -6.43398,1.222957 -9.62614,1.956692 -12.03575,2.552177 -23.89777,5.92609 -35.44671,10.172491 -19.2887,7.016787 -37.69659,16.405948 -54.78151,27.773662 -2.08635,1.356842 -4.15919,2.745824 -6.35072,3.929186 -10.58722,-6.410259 -20.94034,-13.182355 -31.48047,-19.668803 -1.81119,-1.072092 -4.05,-0.590688 -5.79297,0.371928 -3.6787,2.019337 -6.95063,4.680638 -10.30087,7.187163 -12.94273,9.990306 -24.14876,22.180925 -33.26749,35.738621 -1.19138,1.81912 -2.42056,4.05915 -1.61313,6.28107 1.05291,2.1852 2.46056,4.18626 3.71758,6.2594 5.52715,8.77186 11.24865,17.41931 16.81743,26.16461 -6.45701,9.22767 -12.3901,18.82621 -17.61758,28.80441 -11.3572,21.62797 -19.85842,44.79776 -24.77092,68.74026 -0.62022,2.8272 -1.00707,5.7032 -1.66814,8.51978 -11.27379,2.73049 -22.64379,5.04543 -33.92507,7.74257 -1.83314,0.48492 -3.92255,0.8675 -5.10863,2.51011 -1.47121,1.83293 -1.60645,4.2944 -2.09714,6.50476 -2.54859,13.72166 -3.272029,27.80118 -1.83163,41.69279 0.58476,5.56578 1.37265,11.12177 2.58747,16.58688 0.35125,1.73736 1.40173,3.26154 2.8553,4.26446 1.21351,0.94697 2.83796,0.93121 4.26433,1.34315 11.08727,2.4397 22.21308,4.70815 33.26708,7.29668 0.96221,4.55789 1.74704,9.154 2.83098,13.68694 4.04955,17.41254 9.75653,34.45924 17.24714,50.6977 0.34138,0.51249 0.39846,1.44477 1.17136,1.4446 0.74045,0.12998 1.50838,0.46553 2.23259,0.47399 2.87732,-1.77731 5.68131,-3.68749 8.71957,-5.1909 3.40827,-1.75821 7.11516,-3.35774 10.79039,-4.72256 1.82902,-0.66487 3.73417,-1.31965 5.50182,-1.86312 4.42001,-1.3784 8.95758,-2.37479 13.55573,-2.92173 0.64474,-0.12723 1.59772,-0.20707 1.63063,-1.04306 0.15138,-0.6404 0.49416,-1.28826 0.53275,-1.92427 -1.7794,-4.00058 -3.70971,-8.03831 -5.3028,-12.05751 -5.23747,-12.93317 -9.22153,-26.46687 -11.90963,-40.20639 -0.45407,-2.32421 -0.89677,-4.83556 -1.26472,-7.18498 -1.2493,-8.01878 -2.18693,-16.09942 -2.3569,-24.21995 -0.13024,-5.98391 -0.15649,-12.23283 0.0343,-18.21213 0.059,-2.01136 0.16019,-4.02114 0.2743,-6.03006 0.0952,-1.38846 0.20723,-3.01329 0.33513,-4.48967 0.18788,-2.17357 0.44365,-4.5848 0.73164,-6.84548 0.50096,-3.93074 1.16351,-8.05212 1.90739,-12.02968 4.2799,-23.2339 12.39869,-45.76773 24.07404,-66.3131 1.35816,-2.39159 2.80387,-4.8288 4.20323,-7.08783 9.23613,-14.91214 20.24887,-28.73976 32.8866,-40.91349 4.45967,-4.30723 9.10351,-8.42281 13.9108,-12.33833 1.47547,-1.19541 3.11963,-2.50598 4.69012,-3.70868 5.9136,-4.54719 12.06298,-8.78816 18.42121,-12.68976 1.31831,-0.80697 2.84064,-1.71442 4.25133,-2.53537 8.23021,-4.75093 16.75765,-8.99016 25.53578,-12.6326 1.42783,-0.57966 3.06448,-1.24886 4.5848,-1.83093 19.58442,-7.599099 40.32597,-12.046767 61.23942,-13.79602 1.28079,-0.07456 2.37732,-0.12314 3.66797,-0.167969 6.02321,-0.178426 12.23772,-0.192215 18.33469,-0.126829 3.78175,0.06316 7.4389,0.102416 11.19656,0.408079 4.94757,0.485288 9.76352,1.07726 14.67715,1.839999 15.76549,2.432672 31.45911,6.528136 46.34354,12.46724 4.69562,1.84253 9.41193,3.99356 14.05157,6.13417 0.93555,-0.49935 1.8711,-0.9987 2.80664,-1.49805 1.51957,-10.114531 4.38979,-20.07593 9.04492,-29.207031 0.63873,-1.260379 1.41581,-2.710607 2.17556,-4.007509 1.18251,-2.209437 2.81829,-4.206359 3.61155,-6.605772 0.16689,-0.749021 -0.0393,-1.577453 -0.6523,-2.070128 -0.76689,-0.773545 -1.91329,-1.03249 -2.85689,-1.549535 -16.02772,-7.169054 -32.76493,-12.765374 -49.89035,-16.642496 -4.23641,-0.999398 -8.5306,-1.721702 -12.78991,-2.608935 C 441.05315,31.987909 438.7026,19.924204 435.625,8.0351562 435.1729,6.0900414 433.73606,4.4055145 431.80664,3.8105469 428.71374,2.807674 425.45829,2.4527247 422.26358,1.9122788 414.15771,0.68687495 405.95574,0.05632417 397.75586,0.19140625 Z" />
  <path
     id="path104"
     style="opacity:1;fill:#cbcbcb;fill-opacity:1;fill-rule:nonzero;stroke:#080808;stroke-width:3;stroke-linecap:butt;stroke-linejoin:bevel;stroke-miterlimit:100.2;stroke-dasharray:none;stroke-dashoffset:0;stroke-opacity:1;paint-order:normal"
     d="m 626.27323,193.63917 c -6.34551,3.24847 -13.02684,5.82559 -19.84272,7.89934 -1.56157,0.4581 -3.1363,0.88187 -4.73736,1.17878 -0.27406,0.0494 -1.01288,0.17121 -1.47689,0.18341 -1.69914,0.0412 -3.72871,0.30142 -4.78697,1.7935 -0.82949,1.35361 -0.0479,2.94318 0.28729,4.32973 2.24223,7.20835 5.44433,14.06939 7.77857,21.24627 1.47236,4.34572 2.79007,8.74345 3.96948,13.17756 0.43538,1.68305 0.9189,3.57072 1.33175,5.34254 0.63926,2.71002 1.23109,5.45631 1.76948,8.24461 0.29341,1.50447 0.56838,3.03253 0.82824,4.54321 0.24073,1.3644 0.42944,2.62788 0.65061,4.02589 1.20282,7.96737 1.98155,16.18735 2.29029,24.31099 0.24172,6.10341 0.22915,12.40037 -0.007,18.58006 -0.15547,4.02943 -0.42729,8.28777 -0.82885,12.40095 -0.47398,5.06767 -1.16788,10.1132 -2.02514,15.12988 -0.17883,0.96199 -0.39903,2.19401 -0.59375,3.25976 -0.18471,0.951 -0.4305,2.1747 -0.63867,3.23047 -1.42678,6.82706 -3.17103,13.6874 -5.23047,20.28906 -9.33258,30.10736 -25.55184,58.03389 -46.99076,81.13289 -21.71989,23.47466 -48.79946,41.96804 -78.60798,53.5688 -9.39956,3.66166 -18.95441,6.62401 -28.78165,8.90796 -3.94412,0.913 -8.00902,1.72695 -12.05321,2.4177 -1.57323,0.26305 -3.35645,0.55188 -4.9324,0.78038 -7.98259,1.17028 -16.17464,1.90306 -24.29618,2.18946 -3.92501,0.13366 -8.02046,0.17741 -12.01224,0.0988 -3.10792,-0.051 -6.26701,-0.18135 -9.34121,-0.36159 -3.54623,-0.21083 -6.99087,-0.50568 -10.50586,-0.87695 -5.9615,-0.64435 -12.15547,-1.56257 -18.05558,-2.72208 -7.07805,-1.37543 -14.14163,-3.13975 -20.96784,-5.26855 -5.18727,-1.60516 -10.33277,-3.48215 -15.28857,-5.51472 -4.01757,-1.58721 -8.02599,-3.23775 -12.17946,-4.43937 -1.67342,-0.52278 -3.60007,0.27994 -4.35944,1.87152 -1.29417,2.62835 -1.53298,5.60802 -2.28551,8.40875 -2.01333,8.43822 -5.63972,16.38961 -9.82781,23.95324 -0.87456,1.62899 -1.74912,3.25799 -2.62368,4.88699 0.33008,0.93034 0.66016,1.86067 0.99024,2.79101 7.29083,3.07588 14.59483,6.13766 22.09012,8.68813 12.83528,4.43388 25.95579,8.0756 39.28123,10.70389 1.02946,0.28234 2.30915,0.14574 3.10912,0.95173 1.13577,1.80216 1.47856,3.96551 2.02855,5.99349 2.33678,9.88451 4.16464,19.89586 6.94919,29.67068 0.28904,1.39754 1.20335,2.60195 2.48124,3.24208 3.16611,1.62111 6.74071,2.15784 10.20628,2.77481 6.98337,1.07588 14.04283,1.74129 21.11442,1.64707 8.76639,-0.0881 17.55123,-0.62856 26.2086,-2.05274 2.71053,-0.53689 5.53977,-0.95576 7.97476,-2.33724 1.83196,-1.19475 2.41352,-3.46805 3.10507,-5.41034 2.06959,-6.84135 3.37894,-13.88002 4.93796,-20.84801 0.93264,-4.23045 1.843,-8.46752 2.90408,-12.66808 5.91391,-1.57291 12.05529,-2.736 18.05781,-4.24246 23.23757,-5.7001 45.6875,-14.61591 66.46056,-26.49418 5.69542,-3.20758 11.19428,-6.74308 16.70458,-10.25404 1.68564,-1.02395 3.36933,-2.05803 5.13447,-2.94096 5.10048,2.75452 10.01924,5.88336 14.90964,8.92252 5.66079,3.52774 11.30377,7.11263 17.24247,10.1608 1.11122,0.59871 2.44234,1.0668 3.66811,0.50272 2.80785,-1.17331 5.23975,-3.06328 7.70953,-4.80809 6.17634,-4.60341 12.10806,-9.55478 17.60945,-14.95017 5.8941,-5.98948 11.31793,-12.43564 16.37708,-19.14174 1.88511,-2.49252 3.59683,-5.10825 5.26888,-7.74659 -0.0708,-0.7702 0.13544,-1.62282 -0.11476,-2.33963 -6.09539,-9.47815 -12.38948,-18.83192 -18.23073,-28.47093 -0.84342,-1.41961 -1.69895,-2.83429 -2.4592,-4.30076 1.50565,-3.25177 3.80963,-6.03809 5.68369,-9.07441 14.87873,-23.00571 25.79236,-48.48703 32.90842,-74.91812 2.02832,-7.34237 3.47258,-14.82767 5.38445,-22.19888 10.47589,-2.70819 21.16408,-4.84505 31.65249,-7.66959 2.12548,-0.63813 4.34783,-1.06949 6.34384,-2.06207 1.51277,-1.11892 1.84461,-3.12606 2.33878,-4.82739 1.50949,-6.63376 2.1164,-13.43547 2.5546,-20.2127 0.53358,-9.86791 0.20333,-19.78617 -0.97764,-29.59741 -0.53612,-3.78369 -1.00772,-7.64556 -2.45056,-11.21253 -0.57035,-1.54887 -1.92201,-2.62264 -3.42286,-3.207 -4.23791,-1.71238 -8.75333,-2.57448 -13.18739,-3.61628 -7.47543,-1.62716 -14.97581,-3.14264 -22.42938,-4.86847 -1.18475,-1.88368 -1.39575,-4.17587 -1.90254,-6.30073 -3.23148,-15.41004 -7.68762,-30.56677 -13.31507,-45.27216 -1.7533,-4.54858 -3.6856,-9.02484 -5.55387,-13.52672 -0.92644,-0.33268 -1.85287,-0.66536 -2.7793,-0.99804 -2.73177,1.4401 -5.46354,2.8802 -8.19531,4.32031 z" />
  <path
     id="path105"
     style="display:none;opacity:1;fill:#cbcbcb;fill-opacity:1;fill-rule:nonzero;stroke:#080808;stroke-width:3;stroke-linecap:butt;stroke-linejoin:bevel;stroke-miterlimit:100.2;stroke-dasharray:none;stroke-dashoffset:0;stroke-opacity:1;paint-order:normal"
     d="m 590.26172,72.419922 c -8.6263,8.626302 -17.25261,17.252604 -25.87891,25.878906 -0.003,0.940104 -0.005,1.880212 -0.008,2.820312 10.79558,10.87244 21.47533,21.86206 32.43943,32.56558 0.71235,0.61597 1.32624,1.4124 2.14539,1.86775 0.7613,0.0637 1.60022,0.5361 2.27182,-0.0415 2.53063,-2.02797 4.78172,-4.38281 7.13091,-6.61486 6.47282,-6.33342 12.82205,-12.7915 19.2312,-19.18905 0.004,-0.90581 0.19191,-1.8708 0.082,-2.74017 -4.46897,-5.60644 -8.90899,-11.254058 -13.91511,-16.399213 -5.11311,-5.356878 -10.72526,-10.206844 -16.5236,-14.803614 -1.43449,-1.161579 -2.86899,-2.323157 -4.30348,-3.484736 -0.89062,0.04687 -1.78125,0.09375 -2.67187,0.140625 z" />
  <path
     id="path106"
     style="display:none;opacity:1;fill:#cbcbcb;fill-opacity:1;fill-rule:nonzero;stroke:#080808;stroke-width:3;stroke-linecap:butt;stroke-linejoin:bevel;stroke-miterlimit:100.2;stroke-dasharray:none;stroke-dashoffset:0;stroke-opacity:1;paint-order:normal"
     d="m 185.50781,477.17383 c -4.36263,4.36263 -8.72526,8.72526 -13.08789,13.08789 -0.003,0.90895 -0.18902,1.87763 -0.0777,2.74959 4.83226,5.9496 9.54164,12.02195 14.93861,17.48121 5.32931,5.51799 11.19586,10.48048 17.22436,15.21247 0.84657,0.67776 1.69315,1.35553 2.53972,2.03329 0.90085,-0.0944 1.88066,-0.0117 2.73289,-0.21517 8.80388,-8.7857 17.60776,-17.5714 26.41164,-26.35709 -0.0325,-0.97461 -0.0651,-1.94922 -0.0976,-2.92383 -4.77305,-4.16626 -9.61324,-8.26412 -14.10122,-12.74259 -7.1034,-6.86542 -13.74997,-14.17804 -20.51988,-21.36679 -0.95768,-0.0156 -1.91536,-0.0312 -2.87304,-0.0469 -4.36329,4.36263 -8.72657,8.72526 -13.08985,13.08789 z" />
  <path
     style="opacity:1;fill:#4d4d4d;fill-opacity:1;fill-rule:nonzero;stroke:none;stroke-width:0;stroke-linecap:butt;stroke-linejoin:bevel;stroke-miterlimit:100.2;stroke-dasharray:none;stroke-dashoffset:0;paint-order:normal"
     d="m 234.5119,381.66088 c -9.42418,-19.33164 -15.21934,-38.7054 -17.81993,-59.57374 -1.33834,-10.73945 -1.4916,-32.0982 -0.30189,-42.07286 8.25924,-69.24639 52.14426,-126.44282 116.65721,-152.04222 48.05347,-19.06811 104.59746,-16.21474 150.85908,7.61278 l 6.25575,3.22208 -25.39784,25.39784 -25.39783,25.39783 -6.31376,-1.75448 c -3.47256,-0.96496 -8.22294,-2.18025 -10.55639,-2.70064 l -4.24264,-0.94615 -0.53782,-11.29595 c -0.41129,-8.63844 -0.79147,-11.54965 -1.61599,-12.37436 -1.51236,-1.51272 -31.28202,-1.60984 -33.09239,-0.10797 -1.00029,0.82985 -1.1698,2.63109 -1.1698,12.43073 v 11.46026 l -5.83363,1.2357 c -13.6215,2.88537 -29.85807,9.61574 -40.15751,16.64609 -5.01213,3.42124 -3.54363,3.99764 -13.84197,-5.43311 -4.95653,-4.53895 -7.68644,-6.55099 -8.88833,-6.55099 -3.7135,0 -23.90955,19.80522 -23.90955,23.44685 0,0.7209 3.50018,4.92385 7.77818,9.3399 4.27799,4.41604 7.77817,8.2225 7.77817,8.45881 0,0.2363 -1.39207,2.58741 -3.0935,5.22467 -7.02741,10.89269 -13.20546,25.74308 -15.71387,37.77195 -0.67829,3.25266 -1.53604,6.31169 -1.90612,6.79782 -0.43416,0.57031 -2.58632,0.88539 -6.06637,0.88812 -2.96642,0.002 -8.04522,0.21065 -11.28621,0.46291 -5.30875,0.41323 -5.95462,0.62152 -6.51743,2.10183 -1.65793,4.36068 -1.60482,29.42025 0.0681,32.13418 0.48091,0.78018 3.26723,1.08503 12.42369,1.35929 l 11.80374,0.35355 1.25493,6.01041 c 0.6902,3.30573 1.86998,7.96518 2.62172,10.35434 l 1.3668,4.34394 -25.18506,25.17777 c -13.85178,13.84777 -25.40071,25.17777 -25.66428,25.17777 -0.26357,0 -2.22433,-3.57972 -4.35726,-7.95495 z"
     id="path107" />
  <path
     id="path108"
     style="opacity:1;fill:#cbcbcb;fill-opacity:1;fill-rule:nonzero;stroke:#080808;stroke-width:3;stroke-linecap:butt;stroke-linejoin:bevel;stroke-miterlimit:100.2;stroke-dasharray:none;stroke-dashoffset:0;paint-order:normal;stroke-opacity:1"
     d="m 560.47852,209.21289 c -1.74536,0.97265 -3.12234,2.47835 -4.62646,3.7732 -10.07483,9.39159 -19.77119,19.17827 -29.50136,28.9234 -5.05302,5.1425 -10.2047,10.19912 -14.98076,15.60383 -0.99289,1.26942 -2.32758,2.48932 -2.55907,4.15889 -0.0159,1.26566 0.54213,2.46827 0.76951,3.7052 1.37896,5.46002 2.78313,10.91353 4.18134,16.36868 0.61734,0.48233 1.17098,1.11195 1.82797,1.5026 3.98532,0.47593 7.98942,0.77276 12.0033,0.83468 3.30572,0.14575 6.63906,-0.12244 9.92468,0.33225 0.63043,-0.0541 0.58174,0.61236 0.67716,1.05512 0.53227,3.89324 0.54467,7.86246 0.66473,11.73927 0.0568,5.2338 0.17108,10.50535 -0.58808,15.69819 -0.12628,0.63472 -0.23454,1.28024 -0.47851,1.88282 -2.92534,0.64377 -5.94472,0.6858 -8.92404,0.88683 -4.46986,0.24779 -8.95301,0.34994 -13.41004,0.77057 -0.5606,0.40955 -1.18237,0.86557 -1.64816,1.37769 -0.76407,2.73185 -1.24292,5.68962 -1.87323,8.35748 -1.80674,7.66385 -4.56273,15.28508 -7.87872,22.5064 -2.53812,5.54386 -5.54625,10.86552 -8.96394,15.91416 -0.58535,0.97411 -1.34305,1.90495 -1.82255,2.90563 0.11159,0.80221 0.0612,1.67663 0.27261,2.43433 4.45826,4.85531 9.14933,9.5088 13.30635,14.63177 0.54115,0.69785 1.09943,1.38541 1.56867,2.13506 -1.43517,2.61247 -3.49739,4.81306 -5.45246,7.04046 -4.3388,4.7052 -8.9707,9.17669 -14.08808,13.03219 -0.63602,0.40267 -1.28131,1.01053 -2.03368,1.09141 -1.38846,-0.89034 -2.77747,-2.08483 -3.96875,-3.04688 -4.33964,-3.60747 -8.28402,-7.64663 -12.78437,-11.075 -0.89138,-0.6465 -2.13236,-0.52357 -3.02646,0.0597 -3.69221,2.02548 -7.10606,4.52287 -10.86219,6.43948 -6.00428,3.211 -12.27013,5.91586 -18.65705,8.26725 -3.50199,1.26663 -7.33662,2.51956 -11.09013,3.4125 -2.60409,0.66313 -5.27684,0.96462 -7.93527,1.31602 -0.55725,0.62456 -1.27515,1.17168 -1.73456,1.84343 -0.51744,3.64331 -0.75123,7.31705 -0.81665,10.99468 -0.14989,3.76085 0.0702,7.53488 -0.23073,11.28819 0.0271,0.4774 -0.20579,0.9161 -0.73314,0.91524 -3.3873,0.54262 -6.83852,0.4625 -10.25929,0.55012 -5.28561,0.003 -10.57972,0.14251 -15.8589,-0.16925 -1.29832,-0.16742 -2.79169,-0.1307 -3.84915,-0.99858 -0.68654,-1.26623 -0.45642,-2.79724 -0.55519,-4.18663 -0.0797,-6.04578 -0.51545,-12.07826 -1.00535,-18.10244 -0.57796,-0.58781 -1.06622,-1.33144 -1.69765,-1.82637 -5.80132,-1.08868 -11.54659,-2.4656 -17.20123,-4.16013 -1.13072,-0.29115 -2.25927,-0.72723 -3.39132,-0.92995 -0.80439,0.30005 -1.8343,0.2052 -2.36877,0.97791 -14.79196,14.84544 -29.70428,29.57218 -44.33992,44.5725 -1.88971,1.97906 -3.85517,3.89519 -5.62221,5.98518 -0.4952,0.50519 -0.13835,1.0868 0.0348,1.64656 0.21223,0.62235 0.28166,1.35947 0.98062,1.62059 4.13393,2.50294 8.56385,4.471 12.94383,6.49702 20.74609,9.38857 43.16371,15.22069 65.91433,16.60003 4.79543,0.28582 9.60686,0.37202 14.40256,0.0458 6.4154,-0.28176 12.84941,-0.38617 19.22608,-1.21433 12.32441,-1.51557 24.50833,-4.20523 36.33051,-8.00139 12.82219,-4.12571 24.93066,-10.2009 36.51348,-17.02171 11.5816,-6.89205 22.687,-14.70789 32.41169,-24.07655 10.57695,-10.11757 20.06897,-21.38093 28.20093,-33.55215 4.61269,-7.13115 8.66513,-14.61129 12.49955,-22.18434 2.40426,-4.73088 4.52874,-9.60066 6.31379,-14.5989 8.82753,-23.89348 13.02842,-49.54537 11.75527,-75.00869 -1.12013,-23.4285 -6.86908,-46.58148 -16.52836,-67.94054 -1.89479,-4.11661 -3.73915,-8.28487 -6.15724,-12.12783 -0.45054,-0.71299 -1.04502,-1.3707 -1.91783,-1.51216 -0.42963,-0.26811 -0.85301,-0.0319 -1.30287,0.0395 z" />
  <path
     id="path109"
     style="opacity:1;fill:#cbcbcb;fill-opacity:1;fill-rule:nonzero;stroke:#080808;stroke-width:3;stroke-linecap:butt;stroke-linejoin:bevel;stroke-miterlimit:100.2;stroke-dasharray:none;stroke-dashoffset:0;paint-order:normal;stroke-opacity:1"
     d="m 395.50781,113.77539 c -4.43011,0.0431 -8.86637,0.11238 -13.27224,0.62215 -14.67538,1.44454 -29.22575,4.44144 -43.13925,9.36371 -21.10679,7.44297 -40.91106,18.60627 -58.15255,32.8812 -9.19051,7.73666 -17.71196,16.28216 -25.36019,25.5485 -21.39586,26.17881 -35.27652,58.3065 -40.23041,91.71763 -0.79411,5.08001 -1.39945,10.20112 -1.39865,15.35009 -0.0727,7.6139 -0.1152,15.23168 0.0992,22.84364 0.2378,7.85791 1.4256,15.65517 2.90256,23.36563 2.82342,14.323 7.34137,28.31094 13.38094,41.59997 1.93608,4.10057 3.84204,8.22501 6.04992,12.18771 0.5542,0.85891 1.29375,2.08285 2.48956,1.80161 0.611,0.006 1.24219,-0.0162 1.66344,-0.52736 4.8659,-4.46214 9.49928,-9.1714 14.21779,-13.78802 12.11813,-12.00221 24.14635,-24.09216 36.20107,-36.15787 0.0981,-0.76304 0.56887,-1.53707 0.40537,-2.29242 -0.84476,-2.68853 -1.64782,-5.33025 -2.32819,-8.0172 -1.03767,-3.94413 -1.86894,-7.93781 -2.67483,-11.93452 -0.66109,-0.51195 -1.25593,-1.18958 -1.95729,-1.60079 -6.88477,-0.40409 -13.78903,-0.41406 -20.66771,-0.91874 -0.64977,-0.0781 -1.30687,-0.12026 -1.94531,-0.27148 -0.6934,-2.7692 -0.6572,-5.65884 -0.77441,-8.49514 -0.099,-4.3468 -0.0926,-8.82283 0.0224,-13.0908 0.14963,-2.85968 0.14288,-5.77692 0.90165,-8.55676 0.16947,-0.56641 0.98944,-0.39877 1.45607,-0.56789 6.47369,-0.78239 13.02282,-0.54851 19.50659,-1.21184 1.38528,-0.13917 2.71612,-0.98919 3.14155,-2.36273 1.31893,-3.94645 2.01123,-8.0689 3.17415,-12.06174 2.78355,-10.0604 7.04903,-19.67999 12.28288,-28.69802 1.61704,-2.64201 3.23369,-5.28404 4.85743,-7.92188 -0.0966,-0.7906 -0.0337,-1.64495 -0.22582,-2.39739 -2.82026,-3.29149 -5.89252,-6.35745 -8.81831,-9.55408 -2.10272,-2.32929 -4.33201,-4.57389 -6.12775,-7.15595 1.44448,-2.65036 3.56032,-4.85738 5.55869,-7.09452 4.21602,-4.4935 8.65211,-8.81927 13.57065,-12.54485 0.90621,-0.62809 1.81045,-1.35965 2.85894,-1.70243 1.89949,0.88844 3.39621,2.43306 5.00531,3.74634 3.06748,2.65077 5.97451,5.44018 9.07977,8.10169 1.48181,1.29737 3.37214,2.69848 5.46173,2.16463 1.66204,-0.65602 3.10723,-1.77565 4.63302,-2.69563 11.12621,-7.20794 23.57917,-12.24154 36.42173,-15.43422 1.87667,-0.46959 3.96695,-0.91612 5.93648,-1.33112 0.77932,-0.20958 1.6535,-0.26404 2.37464,-0.56875 0.4832,-0.66574 1.14368,-1.26815 1.5213,-1.97161 0.005,-6.13076 0.0763,-12.30269 0.28477,-18.38828 0.0601,-1.01143 0.0773,-2.2921 0.24024,-3.40039 -0.0474,-0.65407 0.81525,-0.40933 1.23018,-0.56438 5.31942,-0.51395 10.67513,-0.41006 16.01316,-0.4243 4.19325,0.0634 8.40956,-0.009 12.57632,0.5283 0.63023,-0.0287 1.03279,0.29052 1.01033,0.94368 0.59536,3.68175 0.68283,7.46675 0.91453,11.14115 0.20213,3.45378 0.29497,6.91724 0.6168,10.36188 0.56846,0.53269 0.93139,1.37365 1.64683,1.6859 5.24001,1.2805 10.49428,2.51388 15.68812,3.97777 1.67146,0.42101 3.33773,0.99577 5.00594,1.34421 0.79924,-0.30132 1.82299,-0.21112 2.35333,-0.98135 16.71689,-16.71485 33.43271,-33.43076 50.14758,-50.14763 -0.17318,-1.06771 -0.34635,-2.13541 -0.51953,-3.20312 -8.77044,-4.42138 -17.57407,-8.84472 -26.83679,-12.15923 -13.93991,-5.02814 -28.46379,-8.43698 -43.19393,-10.07469 -4.59889,-0.54202 -9.21703,-0.96364 -13.85161,-0.96624 -3.80906,-0.0656 -7.61877,-0.0687 -11.42822,-0.042 z" />
  <path
     style="display:none;opacity:1;fill:#325886;fill-opacity:1;fill-rule:nonzero;stroke:none;stroke-width:0;stroke-linecap:butt;stroke-linejoin:bevel;stroke-miterlimit:100.2;stroke-dasharray:none;stroke-dashoffset:0;paint-order:normal"
     d="m 311.64872,317.25666 c -0.0553,-0.159 -0.26798,-1.27781 -0.47261,-2.48625 -4.8781,-28.8077 4.87823,-58.55648 25.94125,-79.09948 10.68192,-10.41821 23.03855,-17.71817 37.10204,-21.91891 9.4323,-2.81741 17.70694,-3.91245 27.79763,-3.67864 6.04491,0.14007 7.34959,0.25522 12.73514,1.12406 l 3.19159,0.51489 -52.91634,52.91672 c -29.10398,29.10419 -52.99774,52.91671 -53.09724,52.91671 -0.0995,0 -0.22616,-0.1301 -0.28146,-0.2891 z"
     id="path110" />
  <path
     id="path111"
     style="display:none;opacity:1;fill:#efdd6f;fill-opacity:1;fill-rule:nonzero;stroke:#080808;stroke-width:3;stroke-linecap:butt;stroke-linejoin:bevel;stroke-miterlimit:100.2;stroke-dasharray:none;stroke-dashoffset:0;stroke-opacity:1;paint-order:normal"
     d="m 486.63477,281.33594 c -11.0032,10.7371 -21.84057,21.64205 -32.74724,32.47709 -23.38077,23.35814 -46.77261,46.70547 -70.01574,70.20153 -0.92615,0.95583 -1.88283,1.88322 -2.77609,2.87021 0.16283,0.99816 0.1823,2.08411 0.43164,3.02929 1.51451,0.78008 3.28134,0.82205 4.93049,1.13197 7.42781,1.10065 14.98802,1.33919 22.45934,0.54386 12.82784,-1.29579 25.42234,-5.18191 36.60086,-11.63835 16.14559,-9.17823 29.39669,-23.35327 37.41929,-40.1072 6.25061,-12.95324 9.40347,-27.38822 9.05812,-41.77038 -0.14057,-5.27252 -0.57979,-10.56443 -1.70638,-15.72435 -0.003,-0.75914 -0.73145,-0.74383 -1.30486,-0.85608 -0.68679,-0.13847 -1.37358,-0.27694 -2.06037,-0.41541 -0.0964,0.0859 -0.19271,0.17188 -0.28906,0.25782 z" />
  <path
     id="path112"
     style="display:none;opacity:1;fill:#efdd6f;fill-opacity:1;fill-rule:nonzero;stroke:#080808;stroke-width:3;stroke-linecap:butt;stroke-linejoin:bevel;stroke-miterlimit:100.2;stroke-dasharray:none;stroke-dashoffset:0;stroke-opacity:1;paint-order:normal"
     d="m 398,208.30859 c -4.41722,0.10745 -8.86175,0.18042 -13.2111,1.04393 -17.2317,2.95973 -33.60105,10.86826 -46.5141,22.6731 -12.89313,11.73487 -22.35,27.19818 -26.94564,44.01294 -1.31388,4.91708 -2.30776,9.93345 -2.80627,15.00069 -0.3385,5.37383 -0.4748,10.77294 -0.16869,16.15118 0.33554,3.3239 0.69805,6.65647 1.3626,9.93262 0.22899,0.88518 0.95892,1.738 1.87875,1.85863 0.83632,-0.25498 1.85044,-0.18415 2.40541,-0.96937 12.32538,-12.09126 24.50389,-24.33133 36.73631,-36.51646 21.34888,-21.33884 42.70264,-42.67215 63.94484,-64.11731 1.36128,-1.40581 2.76581,-2.77091 4.08937,-4.21252 -0.2194,-1.05079 -0.4388,-2.10157 -0.6582,-3.15235 -1.88536,-0.63183 -3.90404,-0.7516 -5.85894,-1.07532 -3.45462,-0.51708 -6.94595,-0.70933 -10.43715,-0.661 -1.27248,-0.009 -2.5448,0.0206 -3.81719,0.0312 z" />
  <metadata
     id="metadata112">
    <rdf:RDF>
      <cc:Work
         rdf:about="">
        <dc:title>Produce by Acme CAD Converter</dc:title>
      </cc:Work>
    </rdf:RDF>
  </metadata>
</svg>
